# This file uses feet as units for non-parametric coordinates.

mtllib audiencefloor.mtl
g default
v -2.564648 -0.000001 0.079288
v -2.564648 -0.782122 0.079288
v -5.011943 -0.000001 0.079288
v -1.619342 -0.782122 0.079288
v -1.619343 -0.000001 0.079288
v -2.564648 -0.000001 -7.532316
v -4.993906 -0.000001 -7.532316
v -2.564648 -0.782122 -7.532316
v -1.619342 -0.782122 -7.532316
v -1.619343 -0.000001 -7.532316
v -1.619342 -0.782122 -7.532316
v -1.619342 -0.782122 0.079288
v -5.197625 -0.000001 0.079288
v -5.180476 -0.000001 -7.532316
v -2.579242 -0.776733 -7.532316
v -2.551273 -0.780772 -7.532316
v -2.523046 -0.782122 -7.532316
v -2.523048 -0.782122 0.079288
v -2.551275 -0.780781 0.079288
v -2.579248 -0.776771 0.079288
v -4.994265 0.016069 0.079288
v -5.030509 0.021745 0.079288
v -5.012475 0.021745 -7.532316
v -4.976238 0.016030 -7.532316
v -5.174980 0.021745 0.079288
v -5.157711 0.021745 -7.532316
vt 0.670388 0.344033
vt 0.670387 0.743803
vt 0.509196 0.743803
vt 0.670388 0.898220
vt 0.509196 0.898220
vt 0.897007 0.400103
vt 0.897007 0.776024
vt 0.736413 0.400103
vt 0.736413 0.246259
vt 0.897007 0.246259
vt 0.341831 0.003269
vt 0.341832 0.996731
vt 0.029906 0.996731
vt 0.027547 0.003269
vt 0.349185 0.996731
vt 0.349185 0.003269
vt 0.469172 0.003269
vt 0.469172 0.996731
vt 0.003180 0.996731
vt 0.000936 0.003269
vt 0.003900 0.003269
vt 0.006159 0.996731
vt 0.345474 0.996731
vt 0.345474 0.003269
vt 0.022804 0.003269
vt 0.025164 0.996731
vn -0.000000 0.000000 -1.000000
vn -0.000000 0.000000 -1.000000
vn -0.000000 0.000000 -1.000000
vn -0.000000 -0.000000 -1.000000
vn 0.000000 0.000000 -1.000000
vn 0.000000 0.000000 -1.000000
vn 0.000000 0.000000 -1.000000
vn 0.000000 0.000000 1.000000
vn 0.000000 0.000000 1.000000
vn 0.000000 0.000000 1.000000
vn 0.000001 0.000000 1.000000
vn 0.000000 0.000000 1.000000
vn 0.000000 0.000000 1.000000
vn 0.000000 0.000000 1.000000
vn 0.312163 0.950029 0.000005
vn 0.311381 0.950285 0.000158
vn 0.310516 0.950568 0.000580
vn 0.309731 0.950824 0.000729
vn 0.001449 0.999999 -0.000000
vn 0.001438 0.999999 0.000000
vn 0.000000 1.000000 -0.000000
vn 0.000000 1.000000 -0.000000
vn -0.690705 0.723135 -0.001556
vn -0.692653 0.721269 -0.001571
vn -0.128092 0.991762 -0.000289
vn -0.129301 0.991605 -0.000293
vn 0.095462 0.995433 0.000001
vn 0.094776 0.995499 0.000003
vn 0.031315 0.999510 0.000074
vn 0.031552 0.999502 0.000074
s off
g audienceFloor BakedQuadGeos1
usemtl audiencefloorSG
f 3/1/1 1/2/2 2/3/3
s 1
f 5/4/4 4/5/5 1/2/6
f 1/2/6 4/5/5 2/3/7
s off
f 6/6/8 7/7/9 8/8/10
s 2
f 6/6/11 8/8/12 10/10/13
f 10/10/13 8/8/12 9/9/14
s 3
f 15/12/15 24/13/16 20/11/17
f 20/11/17 24/13/16 21/14/18
f 17/15/19 18/16/20 11/18/21
f 11/18/21 18/16/20 12/17/22
f 14/19/23 13/20/24 26/22/25
f 26/22/25 13/20/24 25/21/26
f 17/15/19 16/23/27 18/16/20
f 18/16/20 16/23/27 19/24/28
f 16/23/27 15/12/15 19/24/28
f 19/24/28 15/12/15 20/11/17
f 22/25/29 21/14/18 23/26/30
f 23/26/30 21/14/18 24/13/16
f 26/22/25 25/21/26 23/26/30
f 23/26/30 25/21/26 22/25/29
