{
    "accessors": {
        "accessor_buffer_barstools2_0": {
            "bufferView": "bufferView_buffer_barstools2_0",
            "byteOffset": 0,
            "byteStride": 12,
            "componentType": 5126,
            "count": 20249,
            "max": [
                0.7164809703826904,
                1.0684189796447754,
                9.42006778717041
            ],
            "min": [
                -0.376132994890213,
                -0.006798999849706888,
                0
            ],
            "type": "VEC3"
        },
        "accessor_buffer_barstools2_1": {
            "bufferView": "bufferView_buffer_barstools2_0",
            "byteOffset": 242988,
            "byteStride": 12,
            "componentType": 5126,
            "count": 20249,
            "max": [
                0.9999887943267822,
                1.0,
                0.9999905228614807
            ],
            "min": [
                -0.9999642968177795,
                -1.0,
                -0.9999886751174927
            ],
            "type": "VEC3"
        },
        "accessor_buffer_barstools2_2": {
            "bufferView": "bufferView_buffer_barstools2_0",
            "byteOffset": 485976,
            "byteStride": 8,
            "componentType": 5126,
            "count": 20249,
            "max": [
                0.9939110279083252,
                0.9989820000482723
            ],
            "min": [
                0,
                0
            ],
            "type": "VEC2"
        },
        "accessor_buffer_barstools2_3": {
            "bufferView": "bufferView_buffer_barstools2_1",
            "byteOffset": 0,
            "byteStride": 2,
            "componentType": 5123,
            "count": 64239,
            "max": [
                20248
            ],
            "min": [
                0
            ],
            "type": "SCALAR"
        }
    },
    "asset": {
        "profile": {
            "api": "WebGL",
            "version": "1.0.3"
        },
        "version": "1.0"
    },
    "bufferViews": {
        "bufferView_buffer_barstools2_0": {
            "buffer": "buffer_combined",
            "byteLength": 647968,
            "byteOffset": 0,
            "target": 34962
        },
        "bufferView_buffer_barstools2_1": {
            "buffer": "buffer_combined",
            "byteLength": 128478,
            "byteOffset": 647968,
            "target": 34963
        }
    },
    "buffers": {
        "buffer_combined": {
            "byteLength": 776446,
            "type": "arraybuffer",
            "uri": "barstool.bin"
        }
    },
    "extensionsUsed": [
        "KHR_materials_common"
    ],
    "extras": {
        "lights": {}
    },
    "images": {
        "image_barstools.jpg": {
            "uri": "barstools.jpg"
        }
    },
    "materials": {
        "material_barstoolsSG": {
            "extensions": {
                "KHR_materials_common": {
                    "technique": "CONSTANT",
                    "values": {
                        "ambient": [
                            1.0,
                            1.0,
                            1.0,
                            1.0
                        ],
                        "diffuse": "texture_Tex",
                        "doubleSided": false,
                        "emission": "texture_Tex",
                        "shininess": 50,
                        "specular": [
                            0.5,
                            0.5,
                            0.5,
                            1.0
                        ],
                        "transparency": 1.0,
                        "transparent": false
                    }
                }
            },
            "name": "barstoolsSG"
        }
    },
    "meshes": {
        "mesh_barstools2": {
            "name": "barstools2",
            "primitives": [
                {
                    "attributes": {
                        "NORMAL": "accessor_buffer_barstools2_1",
                        "POSITION": "accessor_buffer_barstools2_0",
                        "TEXCOORD_0": "accessor_buffer_barstools2_2"
                    },
                    "indices": "accessor_buffer_barstools2_3",
                    "material": "material_barstoolsSG",
                    "mode": 4
                }
            ]
        }
    },
    "nodes": {
        "node_barstools2": {
            "children": [],
            "matrix": [
                1.0,
                0.0,
                0.0,
                0.0,
                0.0,
                -1.6292068494294654e-07,
                1.0,
                0.0,
                0.0,
                -1.0,
                -1.6292068494294654e-07,
                0.0,
                0.0,
                0.0,
                0.0,
                1.0
            ],
            "meshes": [
                "mesh_barstools2"
            ],
            "name": "barstools2"
        },
        "node_scene_Scene_root": {
            "children": [
                "node_barstools2"
            ],
            "matrix": [
                1.0,
                0.0,
                0.0,
                0.0,
                0.0,
                0.0,
                -1.0,
                0.0,
                0.0,
                1.0,
                0.0,
                0.0,
                0.0,
                0.0,
                0.0,
                1.0
            ],
            "name": "node_scene_Scene_root"
        }
    },
    "samplers": {
        "sampler_default": {}
    },
    "scene": "scene_Scene",
    "scenes": {
        "scene_Scene": {
            "extras": {
                "active_camera": "camera_Camera",
                "background_color": [
                    0.05087608844041824,
                    0.05087608844041824,
                    0.05087608844041824
                ],
                "frames_per_second": 24
            },
            "name": "Scene",
            "nodes": [
                "node_scene_Scene_root"
            ]
        }
    },
    "textures": {
        "texture_Tex": {
            "format": 6408,
            "internalFormat": 6408,
            "sampler": "sampler_default",
            "source": "image_barstools.jpg"
        }
    }
}
