# This file uses feet as units for non-parametric coordinates.

mtllib COLspiralstaircase3.mtl
g default
v -2.801880 3.256075 0.209996
v -3.426164 2.993033 0.422242
v -3.860686 2.743720 0.918195
v -3.989018 2.494406 1.564963
v -3.776772 2.242234 2.189248
v -3.280819 1.960503 2.623768
v -2.634050 1.654545 2.752100
v -2.009766 1.424044 2.539855
v -1.575244 1.171929 2.043902
v -1.446912 0.927423 1.397135
v -1.659158 0.742000 0.772850
v -2.155111 0.499897 0.338327
v -3.974370 -0.088615 0.209996
v -2.722323 3.256076 1.415036
v -1.446911 3.256077 1.397134
v -1.767467 3.256078 0.221100
v -2.754745 2.993033 1.426060
v -2.777311 2.743136 1.451817
v -2.783977 2.483266 1.485406
v -2.772954 2.200881 1.517828
v -2.747196 1.913822 1.540393
v -2.713607 1.633316 1.547060
v -2.681185 1.381680 1.536036
v -2.658620 1.155512 1.510279
v -2.651953 0.938503 1.476690
v -2.662977 0.721051 1.444268
v -2.688734 0.496022 1.421703
v -3.433628 -0.088615 1.980261
v -2.834949 3.245037 -0.025023
v -1.764885 3.256078 -0.019454
v -3.547947 2.971381 0.225570
v -4.064795 2.722543 0.809040
v -4.220355 2.474129 1.572794
v -3.973057 2.224501 2.312279
v -3.389581 1.944164 2.828633
v -2.625230 1.638156 2.983491
v -1.885263 1.409049 2.735464
v -1.369730 1.156012 2.151615
v -1.215596 0.909006 1.387661
v -1.463413 0.724073 0.648613
v -2.052100 0.475216 0.132957
v -3.931123 -0.263400 -0.024430
v -2.834949 4.234210 -0.025023
v -1.764885 4.245250 -0.019454
v -3.547947 3.960553 0.225570
v -4.064795 3.711715 0.809040
v -4.220355 3.463301 1.572794
v -3.973057 3.213673 2.312279
v -3.389581 2.933336 2.828633
v -2.625230 2.627328 2.983491
v -1.885263 2.398221 2.735464
v -1.369730 2.145184 2.151615
v -1.215596 1.898179 1.387661
v -1.463413 1.713245 0.648613
v -2.052100 1.464389 0.132957
v -2.801880 3.256075 0.209996
v -3.426164 2.993033 0.422242
v -3.860686 2.743720 0.918195
v -3.989018 2.494406 1.564963
v -3.776772 2.242234 2.189248
v -3.280819 1.960503 2.623768
v -2.634050 1.654545 2.752100
v -2.009766 1.424044 2.539855
v -1.575244 1.171929 2.043902
v -1.446912 0.927423 1.397135
v -1.659158 0.742000 0.772850
v -2.155111 0.499897 0.338327
v -3.974370 -0.088615 0.209996
v -2.722323 3.256076 1.415036
v -1.446911 3.256077 1.397134
v -1.767467 3.256078 0.221100
v -2.754745 2.993033 1.426060
v -2.777311 2.743136 1.451817
v -2.783977 2.483266 1.485406
v -2.772954 2.200881 1.517828
v -2.747196 1.913822 1.540393
v -2.713607 1.633316 1.547060
v -2.681185 1.381680 1.536036
v -2.658620 1.155512 1.510279
v -2.651953 0.938503 1.476690
v -2.662977 0.721051 1.444268
v -2.688734 0.496022 1.421703
v -3.433628 -0.088615 1.980261
v -2.834949 3.245037 -0.025023
v -1.764885 3.256078 -0.019454
v -3.547947 2.971381 0.225570
v -4.064795 2.722543 0.809040
v -4.220355 2.474129 1.572794
v -3.973057 2.224501 2.312279
v -3.389581 1.944164 2.828633
v -2.625230 1.638156 2.983491
v -1.885263 1.409049 2.735464
v -1.369730 1.156012 2.151615
v -1.215596 0.909006 1.387661
v -1.463413 0.724073 0.648613
v -2.052100 0.475216 0.132957
v -3.931123 -0.263400 -0.024430
v -2.834949 4.234210 -0.025023
v -1.764885 4.245250 -0.019454
v -3.547947 3.960553 0.225570
v -4.064795 3.711715 0.809040
v -4.220355 3.463301 1.572794
v -3.973057 3.213673 2.312279
v -3.389581 2.933336 2.828633
v -2.625230 2.627328 2.983491
v -1.885263 2.398221 2.735464
v -1.369730 2.145184 2.151615
v -1.215596 1.898179 1.387661
v -1.463413 1.713245 0.648613
v -2.052100 1.464389 0.132957
v -2.736137 0.008978 1.737019
v -3.140951 0.180988 0.268786
v -2.947308 0.231599 1.391532
v -3.091595 0.002973 0.045889
v -3.187579 1.104115 0.037849
v -3.113419 0.164884 0.142589
v -3.147552 0.704320 0.041202
v -2.736137 0.008978 1.737019
v -3.140951 0.180988 0.268786
v -2.947308 0.231599 1.391532
v -3.091595 0.002973 0.045889
v -3.187579 1.104115 0.037849
v -3.113419 0.164884 0.142590
v -3.147552 0.704320 0.041202
vt 0.912744 0.535943
vt 0.858584 0.776194
vt 0.858584 0.540845
vt 0.885291 0.001992
vt 0.831131 0.265219
vt 0.831131 0.003440
vt 0.627234 0.534495
vt 0.573074 0.774746
vt 0.573074 0.539397
vt 0.790931 0.268967
vt 0.736771 0.532195
vt 0.736771 0.270416
vt 0.263650 0.296341
vt 0.001871 0.279058
vt 0.261237 0.071629
vt 0.217542 0.431958
vt 0.005760 0.001992
vt 0.280516 0.847090
vt 0.172777 0.941485
vt 0.062450 0.701234
vt 0.411594 0.237341
vt 0.271092 0.265219
vt 0.295671 0.001992
vt 0.713727 0.530747
vt 0.578110 0.484639
vt 0.731010 0.268968
vt 0.633470 0.630337
vt 0.741210 0.535943
vt 0.851537 0.776194
vt 0.684716 0.029870
vt 0.825218 0.001992
vt 0.800638 0.265219
vt 0.278069 0.435706
vt 0.413687 0.481814
vt 0.260787 0.697486
vt 0.036959 0.530101
vt 0.144698 0.435706
vt 0.255025 0.675957
vt 0.477904 0.029870
vt 0.618406 0.001992
vt 0.593826 0.265219
vt 0.436731 0.268968
vt 0.572348 0.315075
vt 0.419448 0.530747
vt 0.566026 0.847090
vt 0.458287 0.941485
vt 0.347960 0.701234
vt 0.937195 0.504316
vt 0.796693 0.532195
vt 0.821272 0.268967
vt 0.341724 0.701234
vt 0.287564 0.941485
vt 0.287564 0.706136
vt 0.471668 0.001992
vt 0.417508 0.265219
vt 0.417508 0.003440
vt 0.001871 0.919957
vt 0.056031 0.679706
vt 0.056031 0.915055
vt 0.624319 0.265219
vt 0.678479 0.001992
vt 0.678479 0.263771
vt 0.877273 0.782337
vt 0.820131 0.998008
vt 0.820131 0.779942
vt 0.814369 0.779942
vt 0.760209 0.932842
vt 0.760209 0.786985
vt 0.937195 0.782337
vt 0.883035 0.998008
vt 0.883035 0.779942
vt 0.754448 0.779942
vt 0.700288 0.932842
vt 0.700288 0.786985
vt 0.000000 0.000000
vt 1.000000 0.000000
vt 1.000000 1.000000
vt 0.000000 1.000000
vt 0.000000 0.000000
vt 1.000000 0.000000
vt 1.000000 1.000000
vt 0.000000 1.000000
vt 0.000000 0.000000
vt 1.000000 0.000000
vt 1.000000 1.000000
vt 0.000000 1.000000
vt 0.000000 0.000000
vt 1.000000 0.000000
vt 1.000000 1.000000
vt 0.000000 1.000000
vt 0.000000 0.000000
vt 1.000000 0.000000
vt 1.000000 1.000000
vt 0.000000 1.000000
vt 0.000000 0.000000
vt 1.000000 0.000000
vt 1.000000 1.000000
vt 0.000000 1.000000
vt 0.000000 0.000000
vt 1.000000 0.000000
vt 1.000000 1.000000
vt 0.000000 1.000000
vt 0.000000 0.000000
vt 1.000000 0.000000
vt 1.000000 1.000000
vt 0.000000 1.000000
vt 0.000000 0.000000
vt 1.000000 0.000000
vt 1.000000 1.000000
vt 0.000000 1.000000
vt 0.000000 0.000000
vt 1.000000 0.000000
vt 1.000000 1.000000
vt 0.000000 1.000000
vt 0.000000 0.000000
vt 1.000000 0.000000
vt 1.000000 1.000000
vt 0.000000 1.000000
vt 0.000000 0.000000
vt 1.000000 0.000000
vt 1.000000 1.000000
vt 0.000000 1.000000
vt 0.000000 0.000000
vt 1.000000 0.000000
vt 1.000000 1.000000
vt 0.000000 1.000000
vt 0.000000 0.000000
vt 1.000000 0.000000
vt 1.000000 1.000000
vt 0.000000 1.000000
vt 0.000000 0.000000
vt 1.000000 0.000000
vt 1.000000 1.000000
vt 0.000000 1.000000
vt 0.000000 0.000000
vt 1.000000 0.000000
vt 1.000000 1.000000
vt 0.000000 1.000000
vt 0.000000 0.000000
vt 1.000000 0.000000
vt 1.000000 1.000000
vt 0.000000 1.000000
vt 0.000000 0.000000
vt 1.000000 0.000000
vt 1.000000 1.000000
vt 0.000000 1.000000
vt 0.000000 0.000000
vt 1.000000 0.000000
vt 1.000000 1.000000
vt 0.000000 1.000000
vt 0.000000 0.000000
vt 1.000000 0.000000
vt 1.000000 1.000000
vt 0.000000 1.000000
vt 0.000000 0.000000
vt 1.000000 0.000000
vt 1.000000 1.000000
vt 0.000000 1.000000
vt 0.000000 0.000000
vt 1.000000 0.000000
vt 1.000000 1.000000
vt 0.000000 1.000000
vt 0.000000 0.000000
vt 1.000000 0.000000
vt 1.000000 1.000000
vt 0.000000 1.000000
vt 0.000000 0.000000
vt 1.000000 0.000000
vt 1.000000 1.000000
vt 0.000000 1.000000
vt 0.000000 0.000000
vt 1.000000 0.000000
vt 1.000000 1.000000
vt 0.000000 1.000000
vt 1.000000 0.000000
vt 1.000000 1.000000
vt 0.263650 0.296341
vt 0.261237 0.071629
vt 0.001871 0.279058
vt 0.005760 0.001992
vt 0.217542 0.431958
vt 0.877273 0.782337
vt 0.820131 0.779942
vt 0.820131 0.998008
vt 0.280516 0.847090
vt 0.062450 0.701234
vt 0.172777 0.941485
vt 0.341724 0.701234
vt 0.287564 0.706136
vt 0.287564 0.941485
vt 0.411594 0.237341
vt 0.295671 0.001992
vt 0.271092 0.265219
vt 0.471668 0.001992
vt 0.417508 0.003440
vt 0.417508 0.265219
vt 0.713727 0.530747
vt 0.731010 0.268968
vt 0.578110 0.484639
vt 0.814369 0.779942
vt 0.760209 0.786985
vt 0.760209 0.932842
vt 0.633470 0.630337
vt 0.851537 0.776194
vt 0.741210 0.535943
vt 0.912744 0.535943
vt 0.858584 0.540845
vt 0.858584 0.776194
vt 0.684716 0.029870
vt 0.800638 0.265219
vt 0.825218 0.001992
vt 0.885291 0.001992
vt 0.831131 0.003440
vt 0.831131 0.265219
vt 0.278069 0.435706
vt 0.260787 0.697486
vt 0.413687 0.481814
vt 0.937195 0.782337
vt 0.883035 0.779942
vt 0.883035 0.998008
vt 0.036959 0.530101
vt 0.255025 0.675957
vt 0.144698 0.435706
vt 0.001871 0.919957
vt 0.056031 0.915055
vt 0.056031 0.679706
vt 0.477904 0.029870
vt 0.593826 0.265219
vt 0.618406 0.001992
vt 0.624319 0.265219
vt 0.678479 0.263771
vt 0.678479 0.001992
vt 0.436731 0.268968
vt 0.419448 0.530747
vt 0.572348 0.315075
vt 0.754448 0.779942
vt 0.700288 0.786985
vt 0.700288 0.932842
vt 0.566026 0.847090
vt 0.347960 0.701234
vt 0.458287 0.941485
vt 0.627234 0.534495
vt 0.573074 0.539397
vt 0.573074 0.774746
vt 0.937195 0.504316
vt 0.821272 0.268967
vt 0.796693 0.532195
vt 0.790931 0.268967
vt 0.736771 0.270416
vt 0.736771 0.532195
vt 0.000000 1.000000
vt 1.000000 1.000000
vt 0.000000 0.000000
vt 1.000000 0.000000
vt 0.000000 1.000000
vt 1.000000 1.000000
vt 0.000000 0.000000
vt 1.000000 0.000000
vt 0.000000 1.000000
vt 1.000000 1.000000
vt 0.000000 0.000000
vt 1.000000 0.000000
vt 0.000000 1.000000
vt 1.000000 1.000000
vt 0.000000 0.000000
vt 1.000000 0.000000
vt 0.000000 1.000000
vt 1.000000 1.000000
vt 0.000000 0.000000
vt 1.000000 0.000000
vt 0.000000 1.000000
vt 1.000000 1.000000
vt 0.000000 0.000000
vt 1.000000 0.000000
vt 0.000000 1.000000
vt 1.000000 1.000000
vt 0.000000 0.000000
vt 1.000000 0.000000
vt 0.000000 0.000000
vt 0.000000 1.000000
vt 1.000000 0.000000
vt 1.000000 1.000000
vt 0.000000 1.000000
vt 1.000000 1.000000
vt 0.000000 0.000000
vt 1.000000 0.000000
vt 0.000000 1.000000
vt 1.000000 1.000000
vt 0.000000 0.000000
vt 1.000000 0.000000
vt 0.000000 0.000000
vt 0.000000 1.000000
vt 1.000000 0.000000
vt 1.000000 1.000000
vt 0.000000 1.000000
vt 1.000000 1.000000
vt 0.000000 0.000000
vt 1.000000 0.000000
vt 0.000000 0.000000
vt 0.000000 1.000000
vt 1.000000 0.000000
vt 1.000000 1.000000
vt 0.000000 0.000000
vt 0.000000 1.000000
vt 1.000000 0.000000
vt 1.000000 1.000000
vt 0.000000 0.000000
vt 0.000000 1.000000
vt 1.000000 0.000000
vt 1.000000 1.000000
vt 0.000000 0.000000
vt 0.000000 1.000000
vt 1.000000 0.000000
vt 1.000000 1.000000
vt 0.000000 0.000000
vt 0.000000 1.000000
vt 1.000000 0.000000
vt 1.000000 1.000000
vt 0.000000 0.000000
vt 0.000000 1.000000
vt 1.000000 0.000000
vt 1.000000 1.000000
vt 0.000000 0.000000
vt 0.000000 1.000000
vt 1.000000 0.000000
vt 1.000000 1.000000
vt 0.000000 0.000000
vt 0.000000 1.000000
vt 1.000000 0.000000
vt 1.000000 1.000000
vt 0.000000 0.000000
vt 0.000000 1.000000
vt 1.000000 0.000000
vt 1.000000 1.000000
vt 0.000000 0.000000
vt 0.000000 1.000000
vt 1.000000 0.000000
vt 1.000000 1.000000
vt 0.000000 0.000000
vt 0.000000 1.000000
vt 1.000000 0.000000
vt 1.000000 1.000000
vt 0.000000 0.000000
vt 0.000000 1.000000
vt 1.000000 0.000000
vt 1.000000 1.000000
vt 0.000000 0.000000
vt 0.000000 1.000000
vt 1.000000 0.000000
vt 1.000000 1.000000
vt 1.000000 0.000000
vt 1.000000 1.000000
vt 0.760117 0.269791
vt 0.861058 0.519423
vt 0.458109 0.000000
vt 0.810155 0.388021
vt 0.766436 0.388021
vt 0.446790 1.000000
vt 0.446790 0.000000
vt 0.395708 1.000000
vt 0.460416 0.539584
vt 0.417010 0.582990
vt 0.760117 0.269791
vt 0.458109 0.000000
vt 0.861058 0.519423
vt 0.766436 0.388021
vt 0.810155 0.388021
vt 0.446790 0.000000
vt 0.446790 1.000000
vt 0.395708 1.000000
vt 0.460416 0.539584
vt 0.417010 0.582990
vn -0.147947 0.988988 0.003819
vn -0.000002 1.000000 0.000000
vn -0.000002 1.000000 0.000000
vn -0.000001 1.000000 0.000000
vn -0.361524 0.923591 0.127593
vn -0.690425 0.650142 0.317220
vn -0.824710 0.124770 0.551621
vn -0.241461 0.928601 0.281775
vn -0.429895 0.666681 0.608873
vn -0.437986 0.131217 0.889354
vn -0.063750 0.927942 0.367233
vn -0.064431 0.655973 0.752029
vn 0.066511 0.126225 0.989770
vn 0.152765 0.920062 0.360762
vn 0.341072 0.630682 0.697072
vn 0.555502 0.116219 0.823353
vn 0.343618 0.906141 0.246647
vn 0.655572 0.617124 0.435182
vn 0.893144 0.114335 0.434997
vn 0.383233 0.922031 0.054682
vn 0.783064 0.619102 0.059353
vn 0.990832 0.117044 -0.067477
vn 0.329497 0.932326 -0.148999
vn 0.667934 0.665431 -0.333265
vn 0.821587 0.130170 -0.555024
vn 0.221438 0.931364 -0.289011
vn 0.406984 0.686268 -0.602827
vn 0.435452 0.144636 -0.888517
vn 0.065064 0.947586 -0.312805
vn 0.065974 0.702161 -0.708955
vn -0.063743 0.150737 -0.986517
vn -0.121752 0.945670 -0.301471
vn -0.300426 0.720556 -0.624935
vn -0.551815 0.150282 -0.820315
vn -0.301362 0.934532 -0.189290
vn -0.592607 0.692925 -0.410698
vn -0.887754 0.145411 -0.436748
vn -0.307124 0.951616 -0.010126
vn -0.401371 0.908803 0.113927
vn -0.694636 0.698770 -0.170887
vn -0.064956 0.820277 0.568266
vn -0.001451 0.999978 -0.006548
vn -0.157212 0.987444 -0.015480
vn -0.331820 0.935129 0.124216
vn -0.214128 0.942411 0.256924
vn -0.051968 0.942382 0.330476
vn 0.140818 0.936603 0.320852
vn 0.313479 0.924667 0.216153
vn 0.337660 0.939736 0.053690
vn 0.314344 0.940583 -0.128420
vn 0.194686 0.943498 -0.268157
vn 0.064829 0.957993 -0.279369
vn -0.100351 0.950772 -0.293195
vn -0.306490 0.914633 -0.263649
vn -0.160580 0.747266 -0.644831
vn -0.357514 0.928908 -0.096510
vn -0.253502 0.731045 -0.633491
vn -0.083539 0.554475 -0.827997
vn -0.005205 0.000000 0.999986
vn -0.005205 0.000000 0.999986
vn -0.005205 0.000000 0.999986
vn -0.005205 0.000000 0.999986
vn 0.331580 0.000000 0.943427
vn 0.331580 0.000000 0.943427
vn 0.331580 0.000000 0.943427
vn 0.331580 0.000000 0.943427
vn 0.748550 0.000000 0.663078
vn 0.748550 0.000000 0.663078
vn 0.748550 0.000000 0.663078
vn 0.748550 0.000000 0.663078
vn 0.979881 0.000000 0.199580
vn 0.979881 0.000000 0.199580
vn 0.979882 0.000000 0.199581
vn 0.979881 0.000000 0.199581
vn 0.948374 0.000000 -0.317154
vn 0.948374 0.000000 -0.317154
vn 0.948374 0.000000 -0.317154
vn 0.948374 0.000000 -0.317154
vn 0.662720 0.000000 -0.748868
vn 0.662720 0.000000 -0.748867
vn 0.662720 0.000000 -0.748867
vn 0.662720 0.000000 -0.748867
vn 0.198566 0.000000 -0.980088
vn 0.198566 0.000000 -0.980088
vn 0.198566 0.000000 -0.980088
vn 0.198566 0.000000 -0.980088
vn -0.317809 0.000000 -0.948155
vn -0.317809 0.000000 -0.948155
vn -0.317809 0.000000 -0.948155
vn -0.317809 0.000000 -0.948155
vn -0.749601 0.000000 -0.661890
vn -0.749601 0.000000 -0.661890
vn -0.749601 0.000000 -0.661890
vn -0.749601 0.000000 -0.661890
vn -0.980248 0.000000 -0.197774
vn -0.980248 0.000000 -0.197774
vn -0.980248 0.000000 -0.197774
vn -0.980248 0.000000 -0.197774
vn -0.948117 0.000000 0.317922
vn -0.948117 0.000000 0.317922
vn -0.948117 0.000000 0.317922
vn -0.948117 0.000000 0.317922
vn -0.658906 0.000000 0.752225
vn -0.658906 0.000000 0.752225
vn -0.658906 0.000000 0.752225
vn -0.658906 0.000000 0.752225
vn 0.147947 -0.988988 -0.003819
vn 0.000002 -1.000000 0.000000
vn 0.000002 -1.000000 0.000000
vn 0.000001 -1.000000 -0.000000
vn 0.690425 -0.650142 -0.317220
vn 0.361524 -0.923591 -0.127593
vn 0.824710 -0.124770 -0.551621
vn 0.429895 -0.666681 -0.608873
vn 0.241461 -0.928601 -0.281775
vn 0.437986 -0.131217 -0.889354
vn 0.064431 -0.655973 -0.752029
vn 0.063750 -0.927942 -0.367233
vn -0.066511 -0.126224 -0.989770
vn -0.341072 -0.630682 -0.697072
vn -0.152765 -0.920062 -0.360762
vn -0.555502 -0.116219 -0.823353
vn -0.655572 -0.617124 -0.435182
vn -0.343619 -0.906141 -0.246647
vn -0.893144 -0.114335 -0.434997
vn -0.783064 -0.619102 -0.059353
vn -0.383233 -0.922031 -0.054682
vn -0.990832 -0.117044 0.067477
vn -0.667934 -0.665431 0.333265
vn -0.329497 -0.932326 0.148999
vn -0.821587 -0.130171 0.555024
vn -0.406984 -0.686268 0.602827
vn -0.221438 -0.931364 0.289011
vn -0.435452 -0.144636 0.888517
vn -0.065974 -0.702161 0.708955
vn -0.065064 -0.947586 0.312805
vn 0.063743 -0.150737 0.986517
vn 0.300427 -0.720556 0.624935
vn 0.121752 -0.945670 0.301471
vn 0.551815 -0.150282 0.820314
vn 0.592607 -0.692925 0.410698
vn 0.301362 -0.934532 0.189290
vn 0.887754 -0.145410 0.436748
vn 0.694636 -0.698770 0.170887
vn 0.401371 -0.908803 -0.113927
vn 0.307124 -0.951616 0.010126
vn 0.064956 -0.820277 -0.568266
vn 0.157212 -0.987444 0.015480
vn 0.001451 -0.999978 0.006548
vn 0.331820 -0.935129 -0.124216
vn 0.214128 -0.942411 -0.256924
vn 0.051968 -0.942383 -0.330476
vn -0.140818 -0.936602 -0.320852
vn -0.313479 -0.924667 -0.216153
vn -0.337660 -0.939736 -0.053690
vn -0.314344 -0.940583 0.128420
vn -0.194686 -0.943498 0.268157
vn -0.064829 -0.957993 0.279369
vn 0.100351 -0.950771 0.293195
vn 0.306490 -0.914633 0.263649
vn 0.253502 -0.731045 0.633491
vn 0.160580 -0.747266 0.644831
vn 0.357513 -0.928908 0.096510
vn 0.083539 -0.554475 0.827997
vn 0.005205 0.000000 -0.999986
vn 0.005205 0.000000 -0.999986
vn 0.005205 0.000000 -0.999986
vn 0.005205 0.000000 -0.999986
vn -0.331580 0.000000 -0.943427
vn -0.331580 0.000000 -0.943427
vn -0.331580 0.000000 -0.943427
vn -0.331580 0.000000 -0.943427
vn -0.748550 0.000000 -0.663078
vn -0.748550 0.000000 -0.663078
vn -0.748550 0.000000 -0.663078
vn -0.748550 0.000000 -0.663078
vn -0.979881 0.000000 -0.199580
vn -0.979882 0.000000 -0.199581
vn -0.979882 0.000000 -0.199580
vn -0.979881 0.000000 -0.199581
vn -0.948374 0.000000 0.317154
vn -0.948374 0.000000 0.317154
vn -0.948374 0.000000 0.317154
vn -0.948374 0.000000 0.317154
vn -0.662720 0.000000 0.748868
vn -0.662720 0.000000 0.748867
vn -0.662720 0.000000 0.748867
vn -0.662720 0.000000 0.748867
vn -0.198566 0.000000 0.980088
vn -0.198566 0.000000 0.980088
vn -0.198566 0.000000 0.980088
vn -0.198565 0.000000 0.980088
vn 0.317809 0.000000 0.948155
vn 0.317809 0.000000 0.948155
vn 0.317809 0.000000 0.948155
vn 0.317809 0.000000 0.948155
vn 0.749601 0.000000 0.661890
vn 0.749601 0.000000 0.661890
vn 0.749601 0.000000 0.661890
vn 0.749601 0.000000 0.661890
vn 0.980248 0.000000 0.197774
vn 0.980248 0.000000 0.197774
vn 0.980248 0.000000 0.197774
vn 0.980248 0.000000 0.197774
vn 0.948117 0.000000 -0.317922
vn 0.948117 0.000000 -0.317922
vn 0.948117 0.000000 -0.317922
vn 0.948117 0.000000 -0.317922
vn 0.658906 0.000000 -0.752225
vn 0.658906 0.000000 -0.752225
vn 0.658906 0.000000 -0.752225
vn 0.658906 0.000000 -0.752225
vn 0.083467 0.000000 -0.996511
vn 0.083467 0.000000 -0.996511
vn 0.083467 0.000000 -0.996511
vn 0.083467 0.000000 -0.996511
vn -0.375155 0.908471 0.184226
vn -0.083467 -0.000000 0.996511
vn -0.083467 0.000000 0.996511
vn -0.083467 -0.000000 0.996511
vn -0.083467 -0.000000 0.996511
vn -0.083467 0.000000 0.996511
vn 0.375155 -0.908471 -0.184226
vn 0.083467 0.000000 -0.996511
s 1
g COL_SpiralStaircase
usemtl lambert23SG
f 1/13/1 14/14/2 16/15/3
f 16/15/3 14/14/2 15/17/4
f 1/13/1 2/16/5 14/14/6
f 14/63/6 2/64/5 17/65/7
f 2/18/5 3/19/8 17/20/9
f 17/51/9 3/52/8 18/53/10
f 3/21/8 4/22/11 18/23/12
f 18/54/12 4/55/11 19/56/13
f 4/24/11 5/25/14 19/26/15
f 19/66/15 5/67/14 20/68/16
f 5/27/14 6/28/17 20/29/18
f 20/1/18 6/2/17 21/3/19
f 6/30/17 7/31/20 21/32/21
f 21/4/21 7/5/20 22/6/22
f 7/33/20 8/34/23 22/35/24
f 22/69/24 8/70/23 23/71/25
f 8/36/23 9/37/26 23/38/27
f 23/57/27 9/58/26 24/59/28
f 9/39/26 10/40/29 24/41/30
f 24/60/30 10/61/29 25/62/31
f 10/42/29 11/43/32 25/44/33
f 25/72/33 11/73/32 26/74/34
f 11/45/32 12/46/35 26/47/36
f 26/7/36 12/8/35 27/9/37
f 112/354/38 113/356/39 12/48/35
f 12/48/35 113/356/39 27/50/40
f 27/10/40 113/357/39 111/353/41
f 16/76/3 30/77/42 1/75/1
f 1/75/1 30/77/42 29/78/43
f 1/80/1 29/81/43 2/79/5
f 2/79/5 29/81/43 31/82/44
f 2/84/5 31/85/44 3/83/8
f 3/83/8 31/85/44 32/86/45
f 3/88/8 32/89/45 4/87/11
f 4/87/11 32/89/45 33/90/46
f 4/92/11 33/93/46 5/91/14
f 5/91/14 33/93/46 34/94/47
f 5/96/14 34/97/47 6/95/17
f 6/95/17 34/97/47 35/98/48
f 6/100/17 35/101/48 7/99/20
f 7/99/20 35/101/48 36/102/49
f 8/103/23 7/104/20 37/106/50
f 37/106/50 7/104/20 36/105/49
f 8/108/23 37/109/50 9/107/26
f 9/107/26 37/109/50 38/110/51
f 9/112/26 38/113/51 10/111/29
f 10/111/29 38/113/51 39/114/52
f 11/115/32 10/116/29 40/118/53
f 40/118/53 10/116/29 39/117/52
f 11/120/32 40/121/53 12/119/35
f 12/119/35 40/121/53 41/122/54
f 112/355/38 116/361/55 13/123/56
f 13/123/56 116/361/55 42/126/57
f 42/126/57 116/361/55 114/358/58
s 14
f 29/127/59 30/128/60 43/130/61
f 43/130/61 30/128/60 44/129/62
s 15
f 31/131/63 29/132/64 45/134/65
f 45/134/65 29/132/64 43/133/66
s 16
f 32/135/67 31/136/68 46/138/69
f 46/138/69 31/136/68 45/137/70
s 17
f 33/139/71 32/140/72 47/142/73
f 47/142/73 32/140/72 46/141/74
s 18
f 34/143/75 33/144/76 48/146/77
f 48/146/77 33/144/76 47/145/78
s 19
f 35/147/79 34/148/80 49/150/81
f 49/150/81 34/148/80 48/149/82
s 20
f 36/151/83 35/152/84 50/154/85
f 50/154/85 35/152/84 49/153/86
s 21
f 37/155/87 36/156/88 51/158/89
f 51/158/89 36/156/88 50/157/90
s 22
f 38/159/91 37/160/92 52/162/93
f 52/162/93 37/160/92 51/161/94
s 23
f 39/163/95 38/164/96 53/166/97
f 53/166/97 38/164/96 52/165/98
s 24
f 40/167/99 39/168/100 54/170/101
f 54/170/101 39/168/100 53/169/102
s 25
f 41/171/103 40/172/104 55/174/105
f 55/174/105 40/172/104 54/173/106
s 26
f 56/177/107 71/178/108 69/179/109
f 71/178/108 70/180/110 69/179/109
f 56/177/107 69/179/111 57/181/112
f 69/182/111 72/183/113 57/184/112
f 57/185/112 72/186/114 58/187/115
f 72/188/114 73/189/116 58/190/115
f 58/191/115 73/192/117 59/193/118
f 73/194/117 74/195/119 59/196/118
f 59/197/118 74/198/120 60/199/121
f 74/200/120 75/201/122 60/202/121
f 60/203/121 75/204/123 61/205/124
f 75/206/123 76/207/125 61/208/124
f 61/209/124 76/210/126 62/211/127
f 76/212/126 77/213/128 62/214/127
f 62/215/127 77/216/129 63/217/130
f 77/218/129 78/219/131 63/220/130
f 63/221/130 78/222/132 64/223/133
f 78/224/132 79/225/134 64/226/133
f 64/227/133 79/228/135 65/229/136
f 79/230/135 80/231/137 65/232/136
f 65/233/136 80/234/138 66/235/139
f 80/236/138 81/237/140 66/238/139
f 66/239/139 81/240/141 67/241/142
f 81/242/141 82/243/143 67/244/142
f 82/246/144 120/367/145 67/245/142
f 67/245/142 120/367/145 119/365/146
f 82/248/144 118/363/147 120/366/145
f 84/251/148 85/252/149 56/253/107
f 56/253/107 85/252/149 71/254/108
f 86/255/150 84/256/148 57/257/112
f 57/257/112 84/256/148 56/258/107
f 87/259/151 86/260/150 58/261/115
f 58/261/115 86/260/150 57/262/112
f 88/263/152 87/264/151 59/265/118
f 59/265/118 87/264/151 58/266/115
f 89/267/153 88/268/152 60/269/121
f 60/269/121 88/268/152 59/270/118
f 90/271/154 89/272/153 61/273/124
f 61/273/124 89/272/153 60/274/121
f 91/275/155 90/276/154 62/277/127
f 62/277/127 90/276/154 61/278/124
f 63/279/130 92/280/156 62/281/127
f 62/281/127 92/280/156 91/282/155
f 93/283/157 92/284/156 64/285/133
f 64/285/133 92/284/156 63/286/130
f 94/287/158 93/288/157 65/289/136
f 65/289/136 93/288/157 64/290/133
f 66/291/139 95/292/159 65/293/136
f 65/293/136 95/292/159 94/294/158
f 96/295/160 95/296/159 67/297/142
f 67/297/142 95/296/159 66/298/139
f 97/300/161 123/371/162 68/299/163
f 68/299/163 123/371/162 119/364/146
f 123/371/162 121/369/164 67/301/142
f 67/301/142 121/369/164 96/302/160
s 40
f 84/303/165 98/304/166 85/305/167
f 85/305/167 98/304/166 99/306/168
s 41
f 86/307/169 100/308/170 84/309/171
f 84/309/171 100/308/170 98/310/172
s 42
f 87/311/173 101/312/174 86/313/175
f 86/313/175 101/312/174 100/314/176
s 43
f 88/315/177 102/316/178 87/317/179
f 87/317/179 102/316/178 101/318/180
s 44
f 89/319/181 103/320/182 88/321/183
f 88/321/183 103/320/182 102/322/184
s 45
f 90/323/185 104/324/186 89/325/187
f 89/325/187 104/324/186 103/326/188
s 46
f 91/327/189 105/328/190 90/329/191
f 90/329/191 105/328/190 104/330/192
s 47
f 92/331/193 106/332/194 91/333/195
f 91/333/195 106/332/194 105/334/196
s 48
f 93/335/197 107/336/198 92/337/199
f 92/337/199 107/336/198 106/338/200
s 49
f 94/339/201 108/340/202 93/341/203
f 93/341/203 108/340/202 107/342/204
s 50
f 95/343/205 109/344/206 94/345/207
f 94/345/207 109/344/206 108/346/208
s 51
f 96/347/209 110/348/210 95/349/211
f 95/349/211 110/348/210 109/350/212
s 52
f 124/372/213 122/370/214 96/351/215
f 96/351/215 122/370/214 110/352/216
s 1
f 113/356/39 112/354/38 13/49/56
f 111/353/41 113/357/39 28/12/217
f 28/12/217 113/357/39 13/11/56
f 116/361/55 112/355/38 12/124/35
f 116/361/55 12/124/35 114/358/58
f 114/358/58 12/124/35 41/125/54
s 53
f 117/362/218 114/359/219 41/175/220
f 117/362/218 41/175/220 115/360/221
f 115/360/221 41/175/220 55/176/222
s 26
f 119/365/146 120/367/145 68/247/163
f 118/363/147 83/249/223 120/366/145
f 120/366/145 83/249/223 68/250/163
f 119/364/146 123/371/162 67/301/142
f 121/369/164 123/371/162 97/300/161
s 52
f 121/368/224 124/372/213 96/351/215
