# This file uses feet as units for non-parametric coordinates.

mtllib downstairsfloor4.mtl
g default
v -1.619343 -0.000001 2.880780
v -6.739133 -0.000001 0.079288
v -10.650960 -0.000001 -4.307956
v -11.919561 -0.000001 -4.307957
v -11.919560 -0.000001 -1.612180
v -10.650960 -0.000001 -1.612181
v -8.779445 -0.000000 0.079288
v -7.392805 -0.000000 0.079288
v -7.386165 -0.000001 -7.532316
v -8.779443 -0.000001 -7.532314
v -10.650960 -0.000001 -7.532316
v -10.650960 -0.000001 0.079287
v -10.148805 -0.000000 0.079288
v -0.903010 -0.000001 9.805227
v -5.153691 -0.000001 9.805227
v -5.154311 -0.000001 11.448312
v -4.263321 -0.000001 12.341496
v -2.506297 -0.000001 12.343048
v -1.613111 -0.000001 11.452058
v -1.612180 -0.000001 9.805227
v 2.827922 -0.000001 9.805227
v 2.827922 -0.000001 2.862214
v -1.619343 -0.000001 -0.046225
v 2.827922 -0.000001 -0.046226
v -5.929571 -0.000001 9.805227
v -5.204542 -0.000001 2.880780
v -7.395483 -0.000001 2.921459
v -6.743073 -0.000001 2.922880
v -6.729364 -0.000001 -7.532316
v -5.197625 -0.000001 0.079288
v -5.180476 -0.000001 -7.532316
v -6.815265 -0.000001 9.805227
v -1.619343 -0.000001 -7.532316
vt 0.792336 0.717477
vt 0.792336 0.870223
vt 0.699351 0.870223
vt 0.699351 0.717477
vt 0.145750 0.990303
vt 0.145750 0.559020
vt 0.247388 0.559020
vt 0.247874 0.990303
vt 0.008573 0.990303
vt 0.008573 0.807607
vt 0.008573 0.654861
vt 0.008573 0.559020
vt 0.045379 0.559020
vt 0.671094 0.007935
vt 0.723075 0.007935
vt 0.670569 0.400283
vt 0.407782 0.400283
vt 0.295012 0.397898
vt 0.289720 0.007935
vt 0.354640 0.007935
vt 0.411510 0.007935
vt 0.826043 0.623532
vt 0.933342 0.623476
vt 0.991670 0.705171
vt 0.991771 0.866274
vt 0.933587 0.948170
vt 0.826043 0.948256
vt 0.996544 0.007935
vt 0.996544 0.401335
vt 0.996544 0.566132
vt 0.670569 0.566132
vt 0.247191 0.397978
vt 0.295300 0.559020
vt 0.296016 0.990303
vt 0.408289 0.559020
vt 0.409546 0.990303
vt 0.670569 0.566132
vt 0.670569 0.990303
vn -0.000000 1.000000 0.000000
vn -0.000000 1.000000 0.000000
vn 0.000000 1.000000 0.000000
vn 0.000000 1.000000 -0.000000
vn 0.000000 1.000000 -0.000000
vn -0.000000 1.000000 -0.000000
vn 0.000000 1.000000 -0.000000
vn 0.000000 1.000000 -0.000000
vn -0.000000 1.000000 -0.000000
vn -0.000000 1.000000 -0.000000
vn -0.000000 1.000000 -0.000000
vn -0.000000 1.000000 0.000000
vn 0.000000 1.000000 0.000000
vn -0.000000 1.000000 0.000000
vn -0.000000 1.000000 0.000000
vn 0.000000 1.000000 0.000000
vn 0.000000 1.000000 0.000000
vn 0.000000 1.000000 0.000000
vn 0.000000 1.000000 0.000000
vn -0.000000 1.000000 -0.000000
vn -0.000000 1.000000 0.000000
vn -0.000000 1.000000 0.000000
vn -0.000000 1.000000 0.000000
vn -0.000000 1.000000 0.000000
vn 0.000000 1.000000 0.000000
vn 0.000000 1.000000 0.000000
vn 0.000000 1.000000 0.000000
vn 0.000000 1.000000 0.000000
vn 0.000000 1.000000 -0.000000
vn 0.000000 1.000000 -0.000000
vn 0.000000 1.000000 -0.000000
vn 0.000000 1.000000 -0.000000
vn -0.000000 1.000000 -0.000000
vn -0.000000 1.000000 -0.000000
vn -0.000000 1.000000 -0.000000
vn -0.000000 1.000000 -0.000000
vn 0.000000 1.000000 0.000000
vn 0.000000 1.000000 0.000000
vn 0.000000 1.000000 0.000000
vn 0.000000 1.000000 0.000000
s 1
g downstairsFloor2 group5 BakedQuadGeos
usemtl lambert26SG
f 6/1/1 3/2/2 5/4/3
f 5/4/3 3/2/2 4/3/4
f 10/5/5 7/6/6 9/8/7
f 9/8/7 7/6/6 8/7/8
f 10/5/5 11/9/9 7/6/6
f 11/9/9 3/10/2 7/6/6
f 3/10/2 6/11/1 7/6/6
f 7/6/6 6/11/1 13/13/10
f 6/11/1 12/12/11 13/13/10
f 14/15/12 1/16/13 20/14/14
f 20/14/14 1/16/13 15/21/15
f 1/16/13 26/17/16 15/21/15
f 26/17/16 28/18/17 15/21/15
f 15/21/15 28/18/17 25/20/18
f 28/18/17 32/19/19 25/20/18
f 20/27/14 15/22/15 19/26/20
f 15/22/15 16/23/21 19/26/20
f 16/23/21 17/24/22 19/26/20
f 17/24/22 18/25/23 19/26/20
f 21/28/24 22/29/25 14/15/12
f 14/15/12 22/29/25 1/16/13
f 24/30/26 23/31/27 22/29/25
f 22/29/25 23/31/27 1/16/13
f 8/7/8 27/32/28 2/33/29
f 2/33/29 27/32/28 28/18/17
f 9/8/7 8/7/8 29/34/30
f 29/34/30 8/7/8 2/33/29
f 28/18/17 26/17/16 2/33/29
f 2/33/29 26/17/16 30/35/31
f 2/33/29 30/35/31 29/34/30
f 29/34/30 30/35/31 31/36/32
s 5
f 30/35/33 23/37/34 31/36/35
f 31/36/35 23/37/34 33/38/36
s 6
f 26/17/37 1/16/38 30/35/39
f 30/35/39 1/16/38 23/37/40
