# This file uses feet as units for non-parametric coordinates.

mtllib downstairsfloor.mtl
g default
v -2.281071 -0.000001 1.312614
v -1.619343 -0.000001 1.312614
v -6.739133 -0.000001 0.079288
v -10.650960 -0.000001 -4.307956
v -11.919561 -0.000001 -4.307957
v -11.919560 -0.000001 -1.612180
v -10.650960 -0.000001 -1.612181
v -8.779445 -0.000000 0.079288
v -7.392805 -0.000000 0.079288
v -7.386165 -0.000001 -7.532316
v -8.779443 -0.000001 -7.532314
v -10.650960 -0.000001 -7.532316
v -10.650960 -0.000001 0.079287
v -10.148805 -0.000000 0.079288
v -1.507757 -0.000001 9.805227
v -0.903010 -0.000001 9.805227
v -5.781834 -0.000001 9.805227
v -5.153691 -0.000001 9.805227
v -5.154311 -0.000001 11.448312
v -4.263321 -0.000001 12.341496
v -2.506297 -0.000001 12.343048
v -1.613111 -0.000001 11.452058
v -1.612180 -0.000001 9.805227
v 2.827922 -0.000001 9.805227
v 2.827922 -0.000001 2.862214
v -1.619343 -0.000001 0.079288
v 2.827922 -0.000001 0.079287
v -5.929571 -0.000001 9.805227
v -5.019219 -0.000001 1.312614
v -5.204542 -0.000001 1.312614
v -7.395483 -0.000001 2.921459
v -6.743073 -0.000001 2.922880
v -6.729364 -0.000001 -7.532316
v -5.197625 -0.000001 0.079288
v -5.180476 -0.000001 -7.532316
v -6.815265 -0.000001 9.805227
v 0.639192 -0.000001 0.079288
v -0.533468 -0.000001 1.690975
v -0.564406 -0.000001 9.805227
v -1.588834 -0.000001 1.674322
v -2.249084 -0.000001 1.663906
v -5.046800 -0.000001 1.619764
v -5.230516 -0.000001 1.616862
v -5.230459 -0.000001 1.616183
v -5.416241 -0.000001 1.534183
v -5.228857 -0.000001 1.616892
vt 0.896493 0.142024
vt 0.747038 0.142024
vt 0.747038 0.017865
vt 0.896493 0.017865
vt 0.568278 0.325191
vt 0.990269 0.325191
vt 0.990269 0.460903
vt 0.568278 0.461553
vt 0.568278 0.142024
vt 0.990269 0.142024
vt 0.990269 0.191171
vt 0.104884 0.549479
vt 0.104306 0.484865
vt 0.555665 0.557414
vt 0.555665 0.616596
vt 0.607565 0.700706
vt 0.733020 0.700655
vt 0.801218 0.775208
vt 0.801337 0.922227
vt 0.733307 0.996964
vt 0.607566 0.997042
vt 0.105807 0.652760
vt 0.555665 0.649733
vt 0.555665 0.981717
vt 0.170741 0.981717
vt 0.016454 0.981717
vt 0.016454 0.767521
vt 0.101859 0.187428
vt 0.101698 0.169449
vt 0.555665 0.101038
vt 0.555665 0.115496
vt 0.814365 0.947997
vt 0.814152 0.726737
vt 0.866044 0.726626
vt 0.866357 0.947997
vt 0.990269 0.524878
vt 0.568278 0.525834
vt 0.971579 0.834735
vt 0.990269 0.675747
vt 0.568278 0.677425
vt 0.174104 0.021426
vt 0.555665 0.014361
vt 0.101660 0.169455
vt 0.097114 0.151274
vt 0.555665 0.176968
vt 0.555665 0.547194
vt 0.016454 0.546494
vt 0.084830 0.546493
vt 0.084830 0.481734
vt 0.084830 0.190128
vt 0.084830 0.171991
vt 0.101699 0.169611
vt 0.988417 0.851984
vt 0.988967 0.947997
vn -0.000000 1.000000 0.000000
vn -0.000000 1.000000 0.000000
vn 0.000000 1.000000 0.000000
vn 0.000000 1.000000 -0.000000
vn 0.000000 1.000000 -0.000000
vn -0.000000 1.000000 -0.000000
vn 0.000000 1.000000 -0.000000
vn 0.000000 1.000000 -0.000000
vn -0.000000 1.000000 -0.000000
vn -0.000000 1.000000 -0.000000
vn -0.000000 1.000000 -0.000000
vn 0.000000 1.000000 0.000000
vn -0.000000 1.000000 0.000000
vn -0.000000 1.000000 0.000000
vn -0.000000 1.000000 0.000000
vn -0.000000 1.000000 0.000000
vn 0.000000 1.000000 0.000000
vn -0.000000 1.000000 -0.000000
vn -0.000000 1.000000 0.000000
vn -0.000000 1.000000 0.000000
vn -0.000000 1.000000 0.000000
vn 0.000000 1.000000 0.000000
vn -0.000000 1.000000 0.000000
vn 0.000000 1.000000 0.000000
vn -0.000000 1.000000 0.000000
vn 0.000000 1.000000 0.000000
vn 0.000000 1.000000 0.000000
vn 0.000000 1.000000 0.000000
vn 0.000000 1.000000 0.000000
vn 0.000000 1.000000 0.000000
vn 0.000000 1.000000 0.000000
vn 0.000000 1.000000 0.000000
vn 0.000000 1.000000 -0.000000
vn 0.000000 1.000000 0.000000
vn 0.000000 1.000000 -0.000000
vn 0.000000 1.000000 0.000000
vn 0.000000 1.000000 -0.000000
vn 0.000000 1.000000 -0.000000
vn 0.000000 1.000000 0.000000
vn 0.000000 1.000000 0.000000
vn 0.000000 1.000000 0.000000
vn 0.000000 1.000000 0.000000
vn 0.000000 1.000000 0.000000
vn 0.000000 1.000000 0.000000
vn 0.000000 1.000000 0.000000
vn 0.000000 1.000000 0.000000
s 1
g downstairsFloor BakedQuadGeos1
usemtl downstairsFloorSG
f 7/1/1 4/2/2 6/4/3
f 6/4/3 4/2/2 5/3/4
f 11/5/5 8/6/6 10/8/7
f 10/8/7 8/6/6 9/7/8
f 11/5/5 12/9/9 8/6/6
f 12/9/9 4/2/2 8/6/6
f 4/2/2 7/1/1 8/6/6
f 8/6/6 7/1/1 14/11/10
f 7/1/1 13/10/11 14/11/10
f 41/13/12 15/14/13 40/12/14
f 40/12/14 15/14/13 16/15/15
f 23/21/16 18/16/17 22/20/18
f 18/16/17 19/17/19 22/20/18
f 19/17/19 20/18/20 22/20/18
f 20/18/20 21/19/21 22/20/18
f 38/22/22 39/23/23 25/25/24
f 25/25/24 39/23/23 24/24/25
f 27/26/26 37/27/27 25/25/24
f 25/25/24 37/27/27 38/22/22
f 42/28/28 43/29/29 17/31/30
f 17/31/30 43/29/29 28/30/31
f 9/32/8 31/33/32 3/35/33
f 3/35/33 31/33/32 32/34/34
f 10/8/7 9/7/8 33/37/35
f 33/37/35 9/7/8 3/36/33
f 3/35/33 32/34/34 45/38/36
f 3/36/33 34/39/37 33/37/35
f 33/37/35 34/39/37 35/40/38
f 36/42/39 28/30/31 32/41/34
f 44/43/40 45/44/36 43/29/29
f 43/29/29 45/44/36 28/30/31
f 32/41/34 28/30/31 45/44/36
f 15/14/13 41/13/12 23/46/16
f 17/31/30 18/45/17 42/28/28
f 23/46/16 41/13/12 18/45/17
f 41/13/12 42/28/28 18/45/17
f 37/27/27 26/47/41 38/22/22
f 38/22/22 26/47/41 2/48/42
f 40/12/14 16/15/15 38/22/22
f 38/22/22 16/15/15 39/23/23
f 2/48/42 40/12/14 38/22/22
f 1/49/43 41/13/12 2/48/42
f 2/48/42 41/13/12 40/12/14
f 41/13/12 1/49/43 42/28/28
f 42/28/28 1/49/43 29/50/44
f 29/50/44 30/51/45 42/28/28
f 44/43/40 46/52/46 30/51/45
f 30/51/45 46/52/46 42/28/28
f 46/52/46 43/29/29 42/28/28
f 43/29/29 46/52/46 44/43/40
f 45/44/36 44/43/40 30/51/45
f 45/38/36 30/53/45 3/35/33
f 3/35/33 30/53/45 34/54/37
