# This file uses feet as units for non-parametric coordinates.

mtllib stage.mtl
g default
v 3.462223 -0.000001 0.079287
v 3.462223 -0.000001 -7.532316
v 2.827922 -0.000001 -7.532316
v 2.827922 -0.000001 0.079287
v -1.619343 -0.000001 -7.532316
v -1.619343 -0.000001 0.079288
v -1.619342 -0.782122 -7.532316
v -1.619342 -0.782122 0.079288
v -1.619343 -0.081715 0.079288
v -1.619343 -0.081714 -7.532316
v -1.644779 -0.061543 0.079288
v -1.644779 -0.027690 0.079288
v -1.644779 -0.027690 -7.532316
v -1.644779 -0.061543 -7.532316
vt 0.666497 0.001992
vt 0.666497 0.998008
vt 0.583495 0.998008
vt 0.583495 0.001992
vt 0.001549 0.998008
vt 0.001549 0.001992
vt 0.673591 0.998008
vt 0.673591 0.001992
vt 0.765243 0.001992
vt 0.765243 0.998008
vt 0.767883 0.998008
vt 0.767883 0.001992
vt 0.772313 0.001992
vt 0.772313 0.998008
vt 0.775936 0.001992
vt 0.775936 0.998008
vn 0.000000 1.000000 0.000000
vn 0.000000 1.000000 0.000000
vn 0.000000 1.000000 0.000000
vn 0.000000 1.000000 -0.000000
vn 0.000000 1.000000 -0.000000
vn 0.000000 1.000000 -0.000000
vn -0.006191 0.999981 -0.000000
vn -0.006191 0.999981 -0.000000
vn -1.000000 -0.000001 0.000000
vn -1.000000 -0.000001 -0.000000
vn -1.000000 -0.000001 0.000000
vn -1.000000 -0.000001 -0.000000
vn -0.904730 -0.425986 -0.000000
vn -0.904731 -0.425984 -0.000000
vn -0.924170 0.381981 -0.000000
vn -0.924170 0.381980 -0.000000
vn -0.621348 -0.783535 -0.000000
vn -0.621349 -0.783534 -0.000000
s 1
g stage BakedQuadGeos1
usemtl stageSG
f 1/1/1 2/2/2 4/4/3
f 4/4/3 2/2/2 3/3/4
s 2
f 4/4/5 3/3/6 6/6/7
f 6/6/7 3/3/6 5/5/8
s 3
f 7/7/9 8/8/10 10/10/11
f 10/10/11 8/8/10 9/9/12
s 2
f 14/11/13 11/12/14 13/14/15
f 13/14/15 11/12/14 12/13/16
f 10/10/17 9/9/18 14/11/13
f 14/11/13 9/9/18 11/12/14
f 6/15/7 5/16/8 12/13/16
f 12/13/16 5/16/8 13/14/15
