# This file uses feet as units for non-parametric coordinates.

mtllib testspiral3.mtl
g default
v 0.079288 3.256075 0.079288
v -2.644653 3.256075 0.079288
v -2.644653 3.101024 0.079288
v 0.079288 3.101024 0.079288
v 0.079288 3.256075 1.477502
v 0.079288 3.101024 1.477502
v -6.554437 3.101024 2.257732
v -6.554437 3.256075 2.257729
v -6.554437 3.101024 2.880780
v -6.554437 3.256075 2.880780
v -5.239187 3.256075 2.257730
v -5.239187 3.256075 2.880780
v -5.239187 3.101024 2.880780
v -5.239187 3.101024 2.257732
v -5.239187 3.101024 0.079288
v -5.239187 3.256075 0.079288
v -6.554437 3.101024 0.079288
v -6.554437 3.256075 0.079288
v -1.766881 3.256075 1.383942
v -1.766850 3.256075 0.079288
v -1.766850 3.101024 0.079288
v -1.768055 3.101024 1.383942
v -1.768055 3.256075 2.880780
v 0.079288 3.256075 2.880780
v -1.768055 3.101024 2.880780
v 0.079288 3.101024 2.880780
v -1.768056 3.256075 2.316576
v 0.079288 3.256075 2.257732
v 0.079288 3.101024 2.257732
v -1.768056 3.101024 2.316576
v -5.239187 3.101024 2.880780
v -5.239187 3.256075 2.880780
v -3.558570 3.256075 2.435249
v -3.452363 3.256075 2.880780
v -3.452363 3.101024 2.880780
v -3.558570 3.101024 2.435250
v -3.451158 3.101024 0.079289
v -3.451158 3.256075 0.079288
v -5.239187 3.101024 0.079289
v -5.239187 3.256075 0.079287
v -1.766295 3.256075 0.225003
v -2.801879 3.256075 0.209995
v -2.803053 3.101024 0.206092
v -1.767468 3.101024 0.221100
v 0.079288 3.101024 0.617829
v 0.079288 3.256075 0.617829
v -5.239187 3.101024 0.617830
v -3.677242 3.101024 0.637712
v -3.677242 3.256075 0.637711
v -5.239187 3.256075 0.617828
v -2.635224 3.256075 2.748197
v -2.610209 3.256075 2.880780
v -2.610209 3.101024 2.880780
v -2.635224 3.101024 2.748197
v -5.239187 3.101024 1.437781
v -3.990191 3.101024 1.561058
v -3.990191 3.256075 1.561058
v -5.239187 3.256075 1.437779
v -5.239187 3.101024 1.027805
v -3.968596 3.101024 1.229228
v -3.968596 3.256075 1.229228
v -5.239187 3.256075 1.027804
v -5.239187 3.101024 1.847756
v -3.925159 3.101024 1.887171
v -3.925159 3.256075 1.887170
v -5.239187 3.256075 1.847755
v -3.281991 3.256075 2.619864
v -3.031286 3.256075 2.880780
v -3.031286 3.101024 2.880780
v -3.281991 3.101024 2.619865
v -2.309111 3.256075 2.683165
v -2.189132 3.256075 2.880780
v -2.189132 3.101024 2.880780
v -2.309111 3.101024 2.683165
v -1.768055 3.256075 1.887756
v 0.079288 3.256075 1.867617
v 0.079288 3.101024 1.867617
v -1.768055 3.101024 1.887756
v -3.129165 3.256075 0.271123
v -3.129165 3.101024 0.271124
v -2.846279 3.101024 0.079288
v -2.846279 3.256075 0.079288
v -3.427338 3.256075 0.418339
v -3.427338 3.101024 0.418339
v -3.249531 3.101024 0.079289
v -3.249531 3.256075 0.079288
v -5.239187 3.101024 0.822818
v -3.861859 3.101024 0.914289
v -3.861859 3.256075 0.914289
v -5.239187 3.256075 0.822816
v -5.239187 3.101024 2.052744
v -3.777946 3.101024 2.185343
v -3.777946 3.256075 2.185342
v -5.239187 3.256075 2.052743
v -2.967055 3.256075 2.726602
v -2.820748 3.256075 2.880780
v -2.820748 3.101024 2.880780
v -2.967055 3.101024 2.726602
v -2.010940 3.256075 2.535951
v -1.978594 3.256075 2.880780
v -1.978594 3.101024 2.880780
v -2.010940 3.101024 2.535951
v -2.714560 3.256075 1.478278
v -2.801879 3.256075 0.209995
v -1.767468 3.242347 0.221100
v -1.766881 3.242347 1.383942
v -2.801879 3.242347 0.209995
v -2.714560 3.242347 1.478278
vt 0.586375 0.826532
vt 0.586375 0.721482
vt 0.612212 0.721482
vt 0.612212 0.826532
vt 0.586375 0.655674
vt 0.612212 0.655674
vt 0.612212 0.874203
vt 0.586375 0.874203
vt 0.612212 0.921873
vt 0.586375 0.921873
vt 0.612212 0.998008
vt 0.586375 0.998008
vt 0.792139 0.078127
vt 0.766303 0.078127
vt 0.766303 0.001992
vt 0.792139 0.001992
vt 0.792139 0.344326
vt 0.766303 0.344326
vt 0.554728 0.734882
vt 0.578277 0.796446
vt 0.554728 0.796446
vt 0.580564 0.796446
vt 0.580564 0.734882
vt 0.554728 0.938542
vt 0.578277 0.938542
vt 0.554728 0.682481
vt 0.580564 0.682481
vt 0.554728 0.655674
vt 0.580564 0.655674
vt 0.353220 0.731809
vt 0.327384 0.731809
vt 0.327384 0.655674
vt 0.353220 0.655674
vt 0.548917 0.795311
vt 0.523080 0.795311
vt 0.523080 0.754762
vt 0.548917 0.754762
vt 0.548917 0.835161
vt 0.523080 0.835161
vt 0.523080 0.716278
vt 0.548917 0.716278
vt 0.548917 0.871597
vt 0.523080 0.871597
vt 0.523080 0.682481
vt 0.548917 0.682481
vt 0.548917 0.902135
vt 0.523080 0.902135
vt 0.523080 0.655674
vt 0.548917 0.655674
vt 0.548917 0.924694
vt 0.523080 0.924694
vt 0.945273 0.348107
vt 0.945273 0.424241
vt 0.784554 0.424241
vt 0.784554 0.348107
vt 0.945273 0.690440
vt 0.784554 0.690440
vt 0.778742 0.921874
vt 0.778742 0.998008
vt 0.618023 0.998008
vt 0.618023 0.921874
vt 0.618023 0.655674
vt 0.778742 0.655674
vt 0.206775 0.001992
vt 0.311825 0.001992
vt 0.359827 0.227517
vt 0.218208 0.227588
vt 0.377633 0.001992
vt 0.377633 0.227585
vt 0.361661 0.354062
vt 0.206680 0.343392
vt 0.156643 0.227732
vt 0.159104 0.001992
vt 0.377633 0.334849
vt 0.361661 0.354062
vt 0.104243 0.227732
vt 0.111433 0.001992
vt 0.377633 0.359488
vt 0.354191 0.394055
vt 0.035299 0.227732
vt 0.035299 0.001992
vt 0.336202 0.430491
vt 0.377633 0.408764
vt 0.077436 0.257412
vt 0.035299 0.253459
vt 0.377633 0.433402
vt 0.309395 0.461029
vt 0.059447 0.293847
vt 0.035299 0.279186
vt 0.311825 0.651894
vt 0.377633 0.651894
vt 0.051500 0.333697
vt 0.035299 0.330640
vt 0.286776 0.651894
vt 0.275598 0.483588
vt 0.054139 0.374246
vt 0.035299 0.356368
vt 0.261727 0.651894
vt 0.237114 0.496631
vt 0.067182 0.412730
vt 0.035299 0.382095
vt 0.211629 0.651894
vt 0.196565 0.499270
vt 0.089741 0.446527
vt 0.035299 0.433549
vt 0.161531 0.651894
vt 0.156715 0.491323
vt 0.111434 0.651894
vt 0.035299 0.651894
vt 0.136482 0.651894
vt 0.120279 0.473334
vt 0.588272 0.001992
vt 0.576839 0.227732
vt 0.434743 0.227660
vt 0.483222 0.001992
vt 0.635943 0.001992
vt 0.638404 0.227732
vt 0.417414 0.227585
vt 0.417414 0.001992
vt 0.683614 0.001992
vt 0.690804 0.227732
vt 0.432909 0.354205
vt 0.417414 0.334849
vt 0.759748 0.001992
vt 0.759748 0.227732
vt 0.440856 0.394055
vt 0.417414 0.359488
vt 0.759748 0.253459
vt 0.717611 0.257412
vt 0.417414 0.408764
vt 0.458845 0.430491
vt 0.759748 0.279186
vt 0.735600 0.293847
vt 0.485652 0.461029
vt 0.417414 0.433402
vt 0.759748 0.330640
vt 0.743547 0.333697
vt 0.483223 0.651894
vt 0.417414 0.651894
vt 0.759748 0.356368
vt 0.740908 0.374246
vt 0.519449 0.483588
vt 0.508271 0.651894
vt 0.759748 0.382095
vt 0.727865 0.412730
vt 0.557934 0.496631
vt 0.533320 0.651894
vt 0.759748 0.433549
vt 0.705306 0.446527
vt 0.598482 0.499270
vt 0.583418 0.651894
vt 0.759748 0.651894
vt 0.683614 0.651894
vt 0.638332 0.491323
vt 0.633516 0.651894
vt 0.658565 0.651894
vt 0.674768 0.473334
vt 0.027723 0.227585
vt 0.027723 0.334849
vt 0.001887 0.334849
vt 0.001887 0.227585
vt 0.027723 0.359488
vt 0.001887 0.359488
vt 0.027723 0.001992
vt 0.001887 0.001992
vt 0.001887 0.408764
vt 0.027723 0.408764
vt 0.027723 0.433402
vt 0.001887 0.433402
vt 0.027723 0.651894
vt 0.001887 0.651894
vt 0.491433 0.655674
vt 0.517269 0.655674
vt 0.517269 0.816394
vt 0.491433 0.816394
vt 0.459785 0.655674
vt 0.485622 0.655674
vt 0.485622 0.816394
vt 0.459785 0.816394
vt 0.410023 0.001992
vt 0.410023 0.227732
vt 0.384187 0.227732
vt 0.384187 0.001992
vt 0.410023 0.253459
vt 0.384187 0.253459
vt 0.410023 0.279186
vt 0.384187 0.279186
vt 0.410023 0.330640
vt 0.384187 0.330640
vt 0.410023 0.356368
vt 0.384187 0.356368
vt 0.410023 0.382095
vt 0.384187 0.382095
vt 0.410023 0.433549
vt 0.384187 0.433549
vt 0.410023 0.651894
vt 0.384187 0.651894
vt 0.359031 0.655818
vt 0.384868 0.655674
vt 0.384868 0.695668
vt 0.359031 0.695668
vt 0.359031 0.732103
vt 0.384868 0.732103
vt 0.428138 0.731960
vt 0.453974 0.731960
vt 0.453974 0.772509
vt 0.428138 0.772509
vt 0.428138 0.692110
vt 0.453974 0.692110
vt 0.453974 0.810993
vt 0.428138 0.810993
vt 0.428138 0.655674
vt 0.453974 0.655674
vt 0.392966 0.655674
vt 0.392966 0.771478
vt 0.390679 0.771478
vt 0.390679 0.655674
vt 0.422326 0.655674
vt 0.422326 0.782076
vt 0.398778 0.782220
vt 0.398778 0.655674
vn 1.000000 0.000000 0.000000
vn 1.000000 0.000000 0.000000
vn 1.000000 0.000000 0.000000
vn 1.000000 0.000000 0.000000
vn 0.000000 0.000000 -1.000000
vn 0.000000 0.000000 -1.000000
vn 0.000000 0.000000 -1.000000
vn 0.000000 0.000000 -1.000000
vn -1.000000 -0.000004 0.000000
vn -1.000000 -0.000004 0.000000
vn -1.000000 -0.000004 0.000000
vn -1.000000 -0.000004 0.000000
vn 0.000000 1.000000 0.000000
vn 0.000000 1.000000 0.000000
vn 0.000000 1.000000 0.000000
vn 0.000000 1.000000 0.000000
vn 0.000000 0.000000 1.000000
vn 0.000000 0.000000 1.000000
vn 0.000000 0.000000 1.000000
vn 0.000000 0.000000 1.000000
vn 0.000000 -1.000000 0.000000
vn 0.000000 -1.000000 0.000000
vn 0.000000 -1.000000 0.000000
vn 0.000000 -1.000000 0.000000
vn 0.000000 0.000000 -1.000000
vn 0.000000 0.000000 -1.000000
vn 0.000000 0.000000 -1.000000
vn 0.000000 0.000000 -1.000000
vn 0.000000 -1.000000 0.000000
vn 0.000000 -1.000000 0.000000
vn 0.000000 -1.000000 0.000000
vn 0.000000 -1.000000 0.000000
vn -1.000000 0.000000 0.000000
vn -1.000000 0.000000 0.000000
vn -1.000000 0.000000 0.000000
vn -1.000000 0.000000 0.000000
vn 0.000000 1.000000 0.000000
vn 0.000000 1.000000 0.000000
vn 0.000000 1.000000 0.000000
vn 0.000000 1.000000 0.000000
vn 0.000000 1.000000 0.000000
vn 0.000000 1.000000 -0.000000
vn -0.000000 1.000000 -0.000000
vn -0.000000 1.000000 -0.000000
vn 0.000000 0.000000 -1.000000
vn 0.000000 0.000000 -1.000000
vn 0.000000 -1.000000 -0.000000
vn 0.000000 -1.000000 -0.000000
vn 0.000000 -1.000000 0.000000
vn 0.000000 -1.000000 -0.000000
vn 0.000000 0.000000 1.000000
vn 0.000000 0.000000 1.000000
vn 0.000000 0.000000 1.000000
vn 0.000000 0.000000 1.000000
vn 0.000000 1.000000 -0.000000
vn 0.000000 1.000000 0.000000
vn -1.000000 0.000640 -0.000708
vn -0.999995 0.002845 -0.001532
vn -0.999966 0.008308 0.000000
vn 0.000000 -1.000000 0.000001
vn 0.000000 -1.000000 0.000001
vn 1.000000 0.000000 0.000000
vn 1.000000 0.000000 0.000000
vn 0.000000 1.000000 -0.000000
vn 0.000000 1.000000 0.000000
vn 0.000000 1.000000 0.000000
vn 0.000000 1.000000 0.000001
vn 1.000000 0.000000 0.000000
vn 1.000000 0.000000 0.000000
vn 1.000000 0.000000 0.000000
vn 1.000000 0.000000 0.000000
vn 0.000000 -1.000000 -0.000000
vn 0.000000 -1.000000 0.000000
vn 0.000000 -1.000000 -0.000001
vn 0.000000 -1.000000 -0.000001
vn -1.000000 0.000000 0.000000
vn -1.000000 0.000000 0.000000
vn -1.000000 0.000000 0.000000
vn -1.000000 0.000000 0.000000
vn -0.670280 0.000000 -0.742108
vn -0.670280 0.000000 -0.742108
vn -0.560920 0.000000 -0.827870
vn -0.560920 0.000000 -0.827870
vn 0.000000 -1.000000 0.000000
vn 0.000000 -1.000000 0.000000
vn 0.000000 0.000000 1.000000
vn 0.000000 0.000000 1.000000
vn 0.000000 1.000000 0.000000
vn 0.000000 1.000000 0.000000
vn 0.000000 1.000000 0.000000
vn 0.000000 1.000000 0.000000
vn 0.000000 1.000000 0.000000
vn 0.000000 1.000000 0.000000
vn 0.000000 0.000000 1.000000
vn 0.000000 0.000000 1.000000
vn 0.000000 0.000000 1.000000
vn 0.000000 0.000000 1.000000
vn 0.000000 -1.000000 0.000000
vn 0.000000 -1.000000 0.000000
vn 0.000000 -1.000000 0.000000
vn 0.000000 -1.000000 0.000000
vn 0.000000 -0.000005 -1.000000
vn 0.000000 -0.000005 -1.000000
vn 0.000000 -0.000005 -1.000000
vn 0.000000 -0.000005 -1.000000
vn 0.751522 -0.000004 -0.659708
vn 0.751522 -0.000004 -0.659708
vn 0.831207 -0.000003 -0.555963
vn 0.831207 -0.000003 -0.555962
vn 0.000000 -1.000000 -0.000000
vn 0.000000 -1.000000 -0.000000
vn 0.000000 -1.000000 -0.000000
vn 0.000000 -1.000000 -0.000000
vn 0.000000 1.000000 0.000002
vn 0.000000 1.000000 0.000002
vn 0.000000 1.000000 0.000001
vn 0.000000 1.000000 0.000000
vn 0.000000 1.000000 0.000000
vn 0.000000 1.000000 0.000000
vn 0.000000 1.000000 0.000000
vn 0.000000 -1.000000 0.000002
vn 0.000000 -1.000000 0.000002
vn 0.000000 -1.000000 0.000001
vn 0.000000 -1.000000 0.000001
vn 1.000000 0.000000 0.000000
vn 1.000000 0.000000 0.000000
vn 0.000000 1.000000 0.000000
vn 0.000000 -1.000000 0.000000
vn 0.000000 -1.000000 0.000000
vn 0.000000 -1.000000 0.000000
vn 0.000000 -1.000000 0.000000
vn 0.000000 1.000000 -0.000000
vn 0.000000 1.000000 -0.000000
vn 0.000000 1.000000 -0.000001
vn 0.000000 1.000000 -0.000001
vn 0.000000 1.000000 0.000002
vn 0.000000 1.000000 0.000002
vn 0.000000 1.000000 0.000001
vn 0.000000 1.000000 0.000000
vn 0.189566 -0.013075 0.981781
vn 0.189566 -0.013075 0.981781
vn 0.318957 -0.006599 0.947746
vn 0.318957 -0.006599 0.947746
vn -0.000001 -0.000000 -1.000000
vn -0.000001 -0.000000 -1.000000
vn -0.000001 -0.000001 -1.000000
vn -0.000001 -0.000001 -1.000000
vn 0.000000 -1.000000 0.000000
vn 0.000000 -1.000000 0.000000
vn 0.000000 -1.000000 -0.000000
vn 0.000000 -1.000000 -0.000000
vn 0.000000 1.000000 0.000001
vn 0.000000 1.000000 0.000001
vn 0.000000 1.000000 0.000000
vn 0.000000 1.000000 0.000001
vn 0.000000 0.000000 1.000000
vn 0.000000 0.000000 1.000000
vn 0.000000 0.000000 1.000000
vn 0.000000 0.000000 1.000000
vn 0.000000 -1.000000 -0.000001
vn 0.000000 -1.000000 -0.000001
vn 0.000000 -1.000000 0.000000
vn 0.000000 -1.000000 0.000000
vn -0.065875 -0.000001 -0.997828
vn -0.065875 -0.000001 -0.997828
vn 0.194628 -0.000003 -0.980877
vn 0.194628 -0.000003 -0.980877
vn 0.000000 -1.000000 -0.000000
vn 0.000000 -1.000000 0.000000
vn 0.000000 -1.000000 0.000000
vn 0.000000 -1.000000 0.000000
vn 0.997828 0.000000 -0.065876
vn 0.997828 0.000000 -0.065876
vn 0.980878 0.000001 0.194626
vn 0.980878 0.000001 0.194626
vn 0.000000 1.000000 0.000000
vn 0.000000 1.000000 0.000000
vn 0.000000 1.000000 0.000000
vn 0.000000 1.000000 0.000000
vn 0.000000 -1.000000 -0.000000
vn 0.000000 -1.000000 -0.000000
vn 0.897083 0.000002 0.441861
vn 0.897083 0.000002 0.441862
vn 0.000000 1.000000 0.000000
vn 0.000000 1.000000 0.000000
vn 0.000000 -1.000000 0.000000
vn 0.000000 -1.000000 -0.000000
vn 0.946778 -0.000001 -0.321887
vn 0.946778 -0.000001 -0.321887
vn 0.000000 1.000000 -0.000000
vn 0.000000 1.000000 -0.000000
vn 0.000000 1.000000 0.000000
vn 0.000000 1.000000 0.000000
vn 0.000000 0.000000 1.000000
vn 0.000000 0.000000 1.000000
vn 0.000000 -1.000000 0.000000
vn 0.000000 -1.000000 0.000000
vn 0.441861 -0.000004 -0.897083
vn 0.441861 -0.000004 -0.897084
vn 0.555177 -0.000004 -0.831732
vn 0.555177 -0.000004 -0.831732
vn 0.000000 1.000000 0.000001
vn 0.000000 1.000000 0.000000
vn 0.000000 0.000000 1.000000
vn 0.000000 0.000000 1.000000
vn 0.000000 -1.000000 -0.000001
vn 0.000000 -1.000000 0.000000
vn -0.321888 0.000000 -0.946778
vn -0.321888 0.000000 -0.946778
vn -1.000000 -0.000001 -0.000909
vn -1.000000 0.000000 -0.000000
vn -1.000000 0.000000 -0.000000
vn 0.555962 0.000001 0.831208
vn 0.555962 0.000001 0.831208
vn 0.000000 -1.000000 -0.000000
vn 0.000000 -1.000000 -0.000000
vn -0.000001 -0.000002 -1.000000
vn -0.000001 -0.000002 -1.000000
vn 0.000000 1.000000 0.000000
vn 0.000000 1.000000 0.000000
vn 0.659705 0.000002 0.751525
vn 0.659705 0.000002 0.751524
vn 0.000000 -1.000000 0.000000
vn 0.000000 -1.000000 0.000000
vn -0.000001 -0.000002 -1.000000
vn -0.000001 -0.000002 -1.000000
vn 0.000000 1.000000 0.000000
vn 0.000000 1.000000 0.000000
vn 0.831729 0.000002 0.555182
vn 0.831729 0.000002 0.555182
vn -0.000000 1.000000 0.000000
vn -0.000000 1.000000 0.000000
vn -0.999991 0.004154 -0.000000
vn -0.999991 0.004154 -0.000000
vn -0.999991 0.004154 -0.000000
vn -0.999991 0.004154 -0.000000
vn -0.999997 -0.000002 -0.002330
vn 0.099057 0.000000 0.995082
vn 0.099057 0.000000 0.995082
vn 0.099057 0.000000 0.995082
vn 0.099057 0.000000 0.995082
vn -0.012612 -0.013756 0.999826
vn -0.012612 -0.013756 0.999826
vn -0.012612 -0.013756 0.999826
vn -0.012612 -0.013756 0.999826
s 1
g pPlane13 group4
usemtl lambert23SG
f 6/1/1 45/2/2 46/3/3 5/4/4
s 2
f 21/158/5 3/159/6 2/160/7 20/161/8
s off
f 8/13/9 7/14/10 9/15/11 10/16/12
f 12/52/13 11/53/14 8/54/15 10/55/16
f 13/172/17 12/173/18 10/174/19 9/175/20
f 14/58/21 13/59/22 9/60/23 7/61/24
f 16/176/25 15/177/26 17/178/27 18/179/28
f 14/58/29 7/61/30 17/62/31 15/63/32
f 7/14/33 8/13/34 18/17/35 17/18/36
f 8/54/37 11/53/38 16/56/39 18/57/40
s 3
f 5/64/41 46/65/42 41/66/43 19/67/44
s 2
f 4/164/45 21/158/5 20/161/8 1/165/46
s 4
f 6/112/47 22/113/48 44/114/49 45/115/50
s 5
f 24/180/51 23/181/52 25/182/53 26/183/54
s 3
f 5/64/41 19/67/44 75/72/55 76/73/56
s 6
f 78/19/57 106/20/58 22/21/59
s 4
f 22/113/48 6/112/47 77/116/60 78/117/61
s 1
f 6/1/1 5/4/4 76/7/62 77/8/63
s 3
f 28/77/64 27/76/65 23/80/66 24/81/67
s 1
f 29/10/68 28/9/69 24/11/70 26/12/71
s 4
f 30/121/72 29/120/73 26/124/74 25/125/75
s off
f 11/30/76 14/31/77 31/32/78 32/33/79
s 7
f 27/27/80 30/26/81 102/28/82 99/29/83
s 4
f 30/121/72 25/125/75 101/128/84 102/129/85
s 5
f 25/182/53 23/181/52 100/184/86 101/185/87
s 3
f 23/80/66 27/76/65 99/84/88 100/85/89
f 34/105/90 33/104/91 11/108/92 32/109/93
s 5
f 35/195/94 34/194/95 32/196/96 31/197/97
s 4
f 36/149/98 35/148/99 31/152/100 14/153/101
s off
f 38/169/102 37/168/103 39/170/104 40/171/105
s 11
f 33/46/106 36/47/107 92/43/108 93/42/109
s 12
f 36/149/110 14/153/111 91/156/112 92/157/113
s 13
f 11/108/114 33/104/115 93/111/116 94/110/117
s 3
f 41/66/43 20/69/118 2/74/119 42/75/120
s 4
f 44/114/49 43/122/121 3/123/122 21/118/123
f 45/115/50 44/114/49 21/118/123 4/119/124
s 1
f 46/3/3 45/2/2 4/5/125 1/6/126
s 3
f 41/66/43 46/65/42 1/68/127 20/69/118
s 12
f 48/134/128 47/138/129 39/139/130 37/135/131
s 13
f 50/90/132 49/87/133 38/86/134 40/91/135
s 16
f 42/75/136 2/74/137 82/78/138 79/79/139
s 17
f 43/198/140 42/199/141 79/200/142 80/201/143
s 18
f 2/160/144 3/159/145 81/162/146 82/163/147
s 19
f 3/123/148 43/122/149 80/126/150 81/127/151
s 3
f 52/93/152 51/92/153 95/96/154 96/97/155
s 5
f 53/189/156 52/188/157 96/190/158 97/191/159
s 4
f 54/137/160 53/136/161 97/140/162 98/141/163
s 7
f 51/204/164 54/205/165 98/206/166 95/207/167
s 12
f 56/150/168 55/151/169 59/147/170 60/146/171
s 11
f 57/34/172 56/35/173 60/36/174 61/37/175
s 13
f 58/102/176 57/103/177 61/99/178 62/98/179
s 12
f 60/146/171 59/147/170 87/143/180 88/142/181
s 11
f 61/37/175 60/36/174 88/40/182 89/41/183
s 13
f 62/98/179 61/99/178 89/95/184 90/94/185
s 12
f 64/154/186 63/155/187 55/151/169 56/150/168
s 11
f 65/38/188 64/39/189 56/35/173 57/34/172
s 13
f 66/106/190 65/107/191 57/103/177 58/102/176
s 3
f 68/101/192 67/100/193 33/104/91 34/105/90
s 5
f 69/193/194 68/192/195 34/194/95 35/195/94
s 4
f 70/145/196 69/144/197 35/148/99 36/149/98
s 7
f 67/50/198 70/51/199 36/47/200 33/46/201
s 3
f 72/89/202 71/88/203 51/92/153 52/93/152
s 5
f 73/187/204 72/186/205 52/188/157 53/189/156
s 4
f 74/133/206 73/132/207 53/136/161 54/137/160
s 7
f 71/208/208 74/209/209 54/205/165 51/204/164
s 3
f 76/73/56 75/72/55 27/76/65 28/77/64
s 1
f 77/8/63 76/7/62 28/9/69 29/10/68
s 4
f 78/117/61 77/116/60 29/120/73 30/121/72
s 6
f 75/23/210 78/19/57 30/26/211 27/27/212
s 17
f 84/202/213 80/201/143 79/200/142 83/203/214
s 19
f 85/130/215 81/127/151 80/126/150 84/131/216
s 18
f 86/166/217 82/163/147 81/162/146 85/167/218
s 16
f 83/82/219 79/79/139 82/78/138 86/83/220
s 17
f 84/48/213 83/49/214 49/45/221 48/44/222
s 19
f 85/130/215 84/131/216 48/134/223 37/135/224
s 18
f 86/166/217 85/167/218 37/168/225 38/169/226
s 16
f 83/82/219 86/83/220 38/86/227 49/87/228
s 12
f 88/142/181 87/143/180 47/138/129 48/134/128
s 11
f 89/41/183 88/40/182 48/44/229 49/45/230
s 13
f 90/94/185 89/95/184 49/87/133 50/90/132
s 12
f 92/157/113 91/156/112 63/155/187 64/154/186
s 11
f 93/42/109 92/43/108 64/39/189 65/38/188
s 13
f 94/110/117 93/111/116 65/107/191 66/106/190
s 3
f 96/97/155 95/96/154 67/100/193 68/101/192
s 5
f 97/191/159 96/190/158 68/192/195 69/193/194
s 4
f 98/141/163 97/140/162 69/144/197 70/145/196
s 7
f 95/207/167 98/206/166 70/210/199 67/211/198
s 3
f 100/85/89 99/84/88 71/88/203 72/89/202
s 5
f 101/185/87 100/184/86 72/186/205 73/187/204
s 4
f 102/129/85 101/128/84 73/132/207 74/133/206
s 7
f 99/212/83 102/213/82 74/209/209 71/208/208
s 3
f 19/67/44 41/66/43 104/70/231 103/71/232
s off
f 44/24/233 22/21/234 106/20/235 105/25/236
s 6
f 19/22/237 106/20/58 78/19/57 75/23/210
s off
f 19/214/238 103/215/239 108/216/240 106/217/241
f 105/218/242 107/219/243 43/220/244 44/221/245
