# This file uses feet as units for non-parametric coordinates.

mtllib testspiral6.mtl
g default
v -2.801879 3.256075 0.209995
v -3.426163 2.993033 0.422242
v -3.860686 2.743720 0.918194
v -3.989018 2.494406 1.564963
v -3.776772 2.245093 2.189248
v -3.280818 1.995779 2.623768
v -2.634050 1.746465 2.752100
v -2.009766 1.497152 2.539855
v -1.575244 1.247838 2.043902
v -1.446912 0.998524 1.397134
v -1.659158 0.749211 0.772850
v -2.155111 0.499897 0.338327
v -2.801879 0.250583 0.209995
v -2.722323 3.256076 1.415036
v -1.446911 3.256077 1.397134
v -1.767467 3.256077 0.221100
v -2.754745 2.993033 1.426059
v -2.777311 2.743720 1.451817
v -2.783977 2.494406 1.485406
v -2.772954 2.245093 1.517828
v -2.747196 1.995779 1.540393
v -2.713607 1.746465 1.547060
v -2.681185 1.497152 1.536036
v -2.658620 1.247838 1.510279
v -2.651953 0.998524 1.476690
v -2.662977 0.749211 1.444268
v -2.688734 0.499897 1.421702
v -2.722323 0.250583 1.415036
vt 0.912744 0.535943
vt 0.858584 0.776194
vt 0.858584 0.540845
vt 0.885291 0.001992
vt 0.831131 0.265219
vt 0.831131 0.003440
vt 0.627234 0.534495
vt 0.573074 0.774746
vt 0.573074 0.539397
vt 0.790931 0.268967
vt 0.736771 0.532195
vt 0.736771 0.270416
vt 0.263650 0.296341
vt 0.001871 0.279058
vt 0.261237 0.071629
vt 0.217542 0.431958
vt 0.005760 0.001992
vt 0.280516 0.847090
vt 0.172777 0.941485
vt 0.062450 0.701234
vt 0.411594 0.237341
vt 0.271092 0.265219
vt 0.295671 0.001992
vt 0.713727 0.530747
vt 0.578110 0.484639
vt 0.731010 0.268968
vt 0.633470 0.630337
vt 0.741210 0.535943
vt 0.851537 0.776194
vt 0.684716 0.029870
vt 0.825218 0.001992
vt 0.800638 0.265219
vt 0.278069 0.435706
vt 0.413687 0.481814
vt 0.260787 0.697486
vt 0.036959 0.530101
vt 0.144698 0.435706
vt 0.255025 0.675957
vt 0.477904 0.029870
vt 0.618406 0.001992
vt 0.593826 0.265219
vt 0.436731 0.268968
vt 0.572348 0.315075
vt 0.419448 0.530747
vt 0.566026 0.847090
vt 0.458287 0.941485
vt 0.347960 0.701234
vt 0.937195 0.504316
vt 0.796693 0.532195
vt 0.821272 0.268967
vt 0.341724 0.701234
vt 0.287564 0.941485
vt 0.287564 0.706136
vt 0.471668 0.001992
vt 0.417508 0.265219
vt 0.417508 0.003440
vt 0.001871 0.919957
vt 0.056031 0.679706
vt 0.056031 0.915055
vt 0.624319 0.265219
vt 0.678479 0.001992
vt 0.678479 0.263771
vt 0.877273 0.782337
vt 0.820131 0.998008
vt 0.820131 0.779942
vt 0.814369 0.779942
vt 0.760209 0.932842
vt 0.760209 0.786985
vt 0.937195 0.782337
vt 0.883035 0.998008
vt 0.883035 0.779942
vt 0.754448 0.779942
vt 0.700288 0.932842
vt 0.700288 0.786985
vn -0.000002 1.000000 0.000000
vn -0.000002 1.000000 0.000000
vn -0.000002 1.000000 0.000000
vn -0.000001 1.000000 0.000001
vn -0.380894 0.924277 0.025146
vn -0.423015 0.904111 0.060350
vn -0.690425 0.650142 0.317220
vn -0.824711 0.124768 0.551620
vn -0.302984 0.931199 0.202655
vn -0.320668 0.913666 0.249773
vn -0.429763 0.667309 0.608278
vn -0.438025 0.131521 0.889290
vn -0.161064 0.931199 0.326997
vn -0.152820 0.913666 0.376644
vn -0.068047 0.667310 0.741665
vn 0.065305 0.131519 0.989160
vn 0.024013 0.931200 0.363718
vn 0.055975 0.913667 0.402592
vn 0.311901 0.667312 0.676322
vn 0.551135 0.131524 0.823985
vn 0.202656 0.931199 0.302984
vn 0.249774 0.913666 0.320668
vn 0.608279 0.667309 0.429763
vn 0.889290 0.131522 0.438024
vn 0.326997 0.931199 0.161064
vn 0.376644 0.913666 0.152821
vn 0.741664 0.667311 0.068047
vn 0.989160 0.131522 -0.065305
vn 0.363719 0.931199 -0.024013
vn 0.402593 0.913666 -0.055976
vn 0.676323 0.667311 -0.311902
vn 0.823985 0.131524 -0.551135
vn 0.302984 0.931199 -0.202655
vn 0.320669 0.913666 -0.249773
vn 0.429763 0.667308 -0.608279
vn 0.438025 0.131521 -0.889290
vn 0.161064 0.931199 -0.326997
vn 0.152821 0.913666 -0.376644
vn 0.068048 0.667310 -0.741665
vn -0.065303 0.131520 -0.989160
vn -0.024012 0.931199 -0.363719
vn -0.055975 0.913666 -0.402593
vn -0.311901 0.667311 -0.676324
vn -0.551134 0.131524 -0.823986
vn -0.202655 0.931199 -0.302984
vn -0.249773 0.913666 -0.320669
vn -0.608277 0.667310 -0.429763
vn -0.889290 0.131523 -0.438025
vn -0.326997 0.931199 -0.161064
vn -0.376645 0.913666 -0.152821
vn -0.741665 0.667310 -0.068048
vn -0.989160 0.131519 0.065304
s 1
g polySurface160 group4
usemtl lambert23SG
f 1/13/1 14/14/2 16/15/3
f 16/15/3 14/14/2 15/17/4
s 2
f 1/13/5 2/16/6 14/14/7
f 14/63/7 2/64/6 17/65/8
s 3
f 2/18/9 3/19/10 17/20/11
f 17/51/11 3/52/10 18/53/12
s 4
f 3/21/13 4/22/14 18/23/15
f 18/54/15 4/55/14 19/56/16
s 5
f 4/24/17 5/25/18 19/26/19
f 19/66/19 5/67/18 20/68/20
s 6
f 5/27/21 6/28/22 20/29/23
f 20/1/23 6/2/22 21/3/24
s 7
f 6/30/25 7/31/26 21/32/27
f 21/4/27 7/5/26 22/6/28
s 8
f 7/33/29 8/34/30 22/35/31
f 22/69/31 8/70/30 23/71/32
s 9
f 8/36/33 9/37/34 23/38/35
f 23/57/35 9/58/34 24/59/36
s 10
f 9/39/37 10/40/38 24/41/39
f 24/60/39 10/61/38 25/62/40
s 11
f 10/42/41 11/43/42 25/44/43
f 25/72/43 11/73/42 26/74/44
s 12
f 11/45/45 12/46/46 26/47/47
f 26/7/47 12/8/46 27/9/48
s 13
f 12/48/49 13/49/50 27/50/51
f 27/10/51 13/11/50 28/12/52
