{
    "accessors": {
        "accessor_buffer_Untitled.001_0": {
            "bufferView": "bufferView_buffer_Untitled.001_0",
            "byteOffset": 0,
            "byteStride": 12,
            "componentType": 5126,
            "count": 1303,
            "max": [
                0,
                12.0,
                0
            ],
            "min": [
                -15.0,
                4.0,
                -28.0
            ],
            "type": "VEC3"
        },
        "accessor_buffer_Untitled.001_1": {
            "bufferView": "bufferView_buffer_Untitled.001_0",
            "byteOffset": 15636,
            "byteStride": 12,
            "componentType": 5126,
            "count": 1303,
            "max": [
                1.0,
                1.0,
                1.0
            ],
            "min": [
                -1.0,
                -1.0,
                -1.0
            ],
            "type": "VEC3"
        },
        "accessor_buffer_Untitled.001_2": {
            "bufferView": "bufferView_buffer_Untitled.001_0",
            "byteOffset": 31272,
            "byteStride": 8,
            "componentType": 5126,
            "count": 1303,
            "max": [
                0.49023398756980896,
                0.41992199420928955
            ],
            "min": [
                0.17773400247097015,
                0.21289098262786865
            ],
            "type": "VEC2"
        },
        "accessor_buffer_Untitled.001_3": {
            "bufferView": "bufferView_buffer_Untitled.001_0",
            "byteOffset": 41696,
            "byteStride": 12,
            "componentType": 5126,
            "count": 1303,
            "max": [
                1.0,
                1.0,
                1.0
            ],
            "min": [
                0.19607843458652496,
                0.19607843458652496,
                0.19607843458652496
            ],
            "type": "VEC3"
        },
        "accessor_buffer_Untitled.001_4": {
            "bufferView": "bufferView_buffer_Untitled.001_1",
            "byteOffset": 0,
            "byteStride": 2,
            "componentType": 5123,
            "count": 1980,
            "max": [
                1302
            ],
            "min": [
                0
            ],
            "type": "SCALAR"
        }
    },
    "asset": {
        "profile": {
            "api": "WebGL",
            "version": "1.0.3"
        },
        "version": "1.0"
    },
    "bufferViews": {
        "bufferView_buffer_Untitled.001_0": {
            "buffer": "buffer_combined",
            "byteLength": 57332,
            "byteOffset": 0,
            "target": 34962
        },
        "bufferView_buffer_Untitled.001_1": {
            "buffer": "buffer_combined",
            "byteLength": 3960,
            "byteOffset": 57332,
            "target": 34963
        }
    },
    "buffers": {
        "buffer_combined": {
            "byteLength": 61292,
            "type": "arraybuffer",
            "uri": "data:text/plain;base64,"
        }
    },
    "extensions": {
        "KHR_materials_common": {
            "lights": {}
        }
    },
    "extensionsUsed": [
        "KHR_materials_common"
    ],
    "images": {
        "image_world-RGBA.png": {
            "uri": "world-RGBA.png"
        }
    },
    "materials": {
        "material_lambert3": {
            "extensions": {
                "KHR_materials_common": {
                    "technique": "LAMBERT",
                    "values": {
                        "ambient": [
                            1.0,
                            1.0,
                            1.0,
                            1.0
                        ],
                        "diffuse": "texture_Texture",
                        "doubleSided": false,
                        "emission": [
                            0.0,
                            0.0,
                            0.0,
                            1.0
                        ],
                        "shininess": 49,
                        "specular": [
                            0.0,
                            0.0,
                            0.0,
                            1.0
                        ],
                        "transparency": 1.0,
                        "transparent": true
                    }
                }
            },
            "name": "lambert3"
        }
    },
    "meshes": {
        "mesh_Untitled.001": {
            "name": "Untitled.001",
            "primitives": [
                {
                    "attributes": {
                        "COLOR_0": "accessor_buffer_Untitled.001_3",
                        "NORMAL": "accessor_buffer_Untitled.001_1",
                        "POSITION": "accessor_buffer_Untitled.001_0",
                        "TEXCOORD_0": "accessor_buffer_Untitled.001_2"
                    },
                    "indices": "accessor_buffer_Untitled.001_4",
                    "material": "material_lambert3",
                    "mode": 4
                }
            ]
        }
    },
    "nodes": {
        "node_WorldGood.001": {
            "children": [],
            "matrix": [
                1.0,
                0.0,
                0.0,
                0.0,
                0.0,
                -1.6292068494294654e-07,
                1.0,
                0.0,
                0.0,
                -1.0,
                -1.6292068494294654e-07,
                0.0,
                0.0,
                0.0,
                0.0,
                1.0
            ],
            "meshes": [
                "mesh_Untitled.001"
            ],
            "name": "WorldGood.001"
        }
    },
    "samplers": {
        "sampler_default": {}
    },
    "scene": "scene_Scene",
    "scenes": {
        "scene_Scene": {
            "extras": {
                "active_camera": "camera_Camera",
                "background_color": [
                    40.5,
                    40.5,
                    40.5
                ],
                "frames_per_second": 24
            },
            "name": "Scene",
            "nodes": [
                "node_WorldGood.001"
            ]
        }
    },
    "textures": {
        "texture_Texture": {
            "format": 6408,
            "internalFormat": 6408,
            "sampler": "sampler_default",
            "source": "image_world-RGBA.png"
        }
    }
}
