# This file uses feet as units for non-parametric coordinates.

mtllib upstairsfoyer.mtl
g default
v -0.079288 3.256075 0.079288
v -0.210961 5.416289 2.880779
v -1.268129 5.416289 2.880780
v -0.210961 5.426793 3.039356
v -1.268129 5.426793 3.039356
v -1.559263 3.256075 0.079288
v -1.559263 5.416289 0.079288
v -0.502096 5.416289 0.079288
v -0.502096 3.256075 0.079288
v -0.079287 6.330840 2.880780
v -0.079287 6.357099 0.079288
v -0.079288 3.256075 2.880780
v -0.210960 3.256075 2.880780
v -1.268127 3.256075 2.880780
v -6.475149 3.256075 2.880780
v -6.475148 6.330840 2.880780
v -0.210960 3.256075 3.039356
v -1.268127 3.256075 3.039356
v -6.475149 3.256075 0.079287
v -6.475148 6.330840 0.079287
v -0.502096 3.256075 -0.079288
v -1.559263 3.256075 -0.079288
v -1.559263 5.426793 -0.079288
v -0.502096 5.426793 -0.079288
vt 0.591363 0.634877
vt 0.591363 0.937119
vt 0.315982 0.939700
vt 0.315982 0.634877
vt 0.000998 0.003392
vt 0.305822 0.003392
vt 0.303240 0.632090
vt 0.000998 0.632090
vt 0.000998 0.148870
vt 0.213342 0.148870
vt 0.213342 0.044953
vt 0.000998 0.044953
vt 0.308157 0.000940
vt 0.610399 0.000940
vt 0.610399 0.013883
vt 0.398055 0.013883
vt 0.398055 0.117800
vt 0.610399 0.117800
vt 0.610399 0.629639
vt 0.308157 0.629639
vt 0.891172 0.215292
vt 0.891172 0.002948
vt 0.906760 0.002948
vt 0.906760 0.216325
vt 0.961603 0.216477
vt 0.961603 0.112560
vt 0.977190 0.112560
vt 0.977190 0.216477
vt 0.924367 0.004905
vt 0.924367 0.217249
vt 0.908780 0.218281
vt 0.908780 0.004905
vt 0.593797 0.941028
vt 0.593797 0.638785
vt 0.869177 0.638785
vt 0.869177 0.941028
vt 0.941975 0.002948
vt 0.941975 0.216325
vt 0.926387 0.215292
vt 0.926387 0.002948
vt 0.979210 0.217016
vt 0.979210 0.113099
vt 0.994798 0.113099
vt 0.994798 0.217016
vt 0.943995 0.218281
vt 0.943995 0.004905
vt 0.959583 0.004905
vt 0.959583 0.217249
vt 0.999002 0.222068
vt 0.999002 0.435444
vt 0.895085 0.435444
vt 0.895085 0.222068
vt 0.613362 0.632716
vt 0.613362 0.004017
vt 0.888742 0.004017
vt 0.888742 0.632716
vn -1.000000 0.000000 0.000000
vn -1.000000 0.000000 0.000000
vn -1.000000 0.000000 0.000000
vn -1.000000 0.000000 0.000000
vn -0.000000 0.000000 1.000000
vn -0.000000 -0.000000 1.000000
vn -0.000000 0.000000 1.000000
vn -0.000000 0.000000 1.000000
vn -0.000000 0.000000 1.000000
vn -0.000000 0.000000 1.000000
vn -0.000000 0.000000 1.000000
vn -0.000000 0.000000 1.000000
vn 0.000000 0.000000 -1.000000
vn 0.000000 -0.000000 -1.000000
vn -0.000000 0.000000 -1.000000
vn 0.000000 0.000000 -1.000000
vn -0.000000 -0.000000 -1.000000
vn -0.000000 -0.000000 -1.000000
vn -0.000000 -0.000000 -1.000000
vn 0.000000 -0.000000 -1.000000
vn -1.000000 -0.000001 0.000000
vn -1.000000 -0.000001 0.000000
vn -1.000000 -0.000001 0.000000
vn -1.000000 -0.000001 0.000000
vn 0.000000 -0.997814 0.066089
vn 0.000000 -0.997813 0.066103
vn 0.000000 -0.997814 0.066090
vn 0.000000 -0.997813 0.066104
vn 1.000000 0.000000 0.000000
vn 1.000000 0.000001 -0.000000
vn 1.000000 0.000000 -0.000000
vn 1.000000 0.000001 -0.000000
vn 1.000000 0.000000 0.000000
vn 1.000000 -0.000000 0.000000
vn 1.000000 -0.000000 0.000000
vn 1.000000 -0.000000 0.000000
vn 1.000000 0.000000 0.000000
vn 1.000000 0.000000 0.000000
vn 1.000000 0.000000 0.000000
vn 1.000000 0.000000 0.000000
vn 0.000000 -0.997813 -0.066105
vn 0.000000 -0.997814 -0.066090
vn 0.000000 -0.997813 -0.066103
vn 0.000000 -0.997814 -0.066089
vn -1.000000 0.000000 0.000000
vn -1.000000 -0.000000 0.000000
vn -1.000000 -0.000000 0.000000
vn -1.000000 -0.000000 0.000000
vn 0.000000 0.000000 1.000000
vn 0.000000 0.000000 1.000000
vn 0.000000 0.000000 1.000000
vn 0.000000 0.000000 1.000000
vn 0.004106 -0.999992 0.000000
vn 0.001079 -0.999976 -0.006909
vn 0.003027 -0.999992 -0.002464
vn -0.000000 -0.999956 -0.009373
s 1
g upstairsfoyer1 ExportGeo
usemtl lambert37SG
f 12/1/1 10/2/2 1/4/3
f 1/4/3 10/2/2 11/3/4
s 2
f 1/5/5 11/6/6 9/12/7
f 9/12/7 11/6/6 8/11/8
f 11/6/6 20/7/9 8/11/8
f 8/11/8 20/7/9 7/10/10
f 20/7/9 19/8/11 7/10/10
f 19/8/11 6/9/12 7/10/10
s 3
f 12/14/13 13/15/14 10/13/15
f 13/15/14 2/16/16 10/13/15
f 10/13/15 2/16/16 16/20/17
f 2/16/16 3/17/18 16/20/17
f 16/20/17 3/17/18 15/19/19
f 3/17/18 14/18/20 15/19/19
s 4
f 13/22/21 17/23/22 2/21/23
f 2/21/23 17/23/22 4/24/24
s 5
f 3/25/25 2/26/26 5/28/27
f 5/28/27 2/26/26 4/27/28
s 6
f 14/29/29 3/30/30 18/32/31
f 18/32/31 3/30/30 5/31/32
s 7
f 16/33/33 15/34/34 20/36/35
f 20/36/35 15/34/34 19/35/36
s 8
f 23/38/37 7/39/38 22/37/39
f 22/37/39 7/39/38 6/40/40
s 9
f 23/41/41 24/42/42 7/44/43
f 7/44/43 24/42/42 8/43/44
s 10
f 24/45/45 21/46/46 8/48/47
f 8/48/47 21/46/46 9/47/48
s 11
f 21/49/49 24/50/50 22/52/51
f 22/52/51 24/50/50 23/51/52
s 12
f 20/53/53 11/54/54 16/56/55
f 16/56/55 11/54/54 10/55/56
