# This file uses feet as units for non-parametric coordinates.

mtllib upstairsceiling.mtl
g default
v -6.633724 6.357099 2.880780
v -6.845158 6.357099 2.880780
v -6.845158 6.357099 9.805227
v -4.730823 6.357099 9.805227
v -4.730799 6.357099 11.238836
v -4.050045 6.357099 11.919558
v -2.715772 6.357099 11.919536
v -2.035049 6.357099 11.238783
v -2.035046 6.357099 9.805227
v 0.079288 6.357099 9.805227
v -6.633724 6.512150 2.880780
v -6.845158 6.512150 2.880780
v -6.845158 6.512150 9.805227
v -4.730823 6.512150 9.805227
v -4.730799 6.512150 11.238836
v -4.050045 6.512150 11.919558
v -2.715772 6.512150 11.919536
v -2.035049 6.512150 11.238783
v -2.035046 6.512150 9.805227
v 0.079288 6.512150 9.805227
v -6.633724 6.512150 0.079288
v -6.633724 6.357099 0.079288
v 0.079288 6.357099 0.079288
v 0.079288 6.512150 0.079288
vt 0.727916 0.236607
vt 0.727916 0.000000
vt 0.745773 0.000000
vt 0.745773 0.236607
vt 0.885374 0.017857
vt 0.867517 0.017857
vt 0.867517 0.000000
vt 0.885374 0.000000
vt 0.704650 0.584822
vt 0.704650 0.000000
vt 0.722507 0.000000
vt 0.722507 0.584822
vt 0.774450 0.178571
vt 0.774450 0.000000
vt 0.792307 0.000000
vt 0.792307 0.178571
vt 0.797716 0.178571
vt 0.797716 0.057492
vt 0.815574 0.057492
vt 0.815574 0.178571
vt 0.797716 0.000000
vt 0.815574 0.000000
vt 0.844250 0.112689
vt 0.844250 0.000000
vt 0.862107 0.000000
vt 0.862107 0.112689
vt 0.820983 0.178569
vt 0.820983 0.121075
vt 0.838840 0.121075
vt 0.838840 0.178569
vt 0.820983 0.000000
vt 0.838840 0.000000
vt 0.751183 0.178571
vt 0.751183 0.000000
vt 0.769040 0.000000
vt 0.769040 0.178571
vt 0.588316 0.821429
vt 0.588316 0.000000
vt 0.606173 0.000000
vt 0.606173 0.821429
vt 0.700903 0.152731
vt 0.614310 0.152731
vt 0.614310 0.116594
vt 0.611583 0.116594
vt 0.611583 0.027273
vt 0.638856 0.027273
vt 0.638856 0.008781
vt 0.647638 -0.000000
vt 0.664849 0.000000
vt 0.673630 0.008782
vt 0.673630 0.027273
vt 0.700903 0.027273
vt 0.017857 0.000000
vt 0.584822 0.000000
vt 0.584822 0.821429
vt 0.406250 0.821429
vt 0.406250 0.942503
vt 0.348758 0.999998
vt 0.236068 1.000000
vt 0.178574 0.942508
vt 0.178571 0.821429
vt 0.000000 0.821429
vt 0.000000 0.236607
vt 0.017857 0.236607
vn -1.000000 0.000000 0.000000
vn -1.000000 0.000000 0.000000
vn -1.000000 0.000000 0.000000
vn -1.000000 0.000000 0.000000
vn 0.000000 0.000000 -1.000000
vn 0.000000 0.000000 -1.000000
vn 0.000000 0.000000 -1.000000
vn 0.000000 0.000000 -1.000000
vn -1.000000 0.000000 0.000000
vn -1.000000 0.000000 0.000000
vn -1.000000 0.000000 0.000000
vn -1.000000 0.000000 0.000000
vn 0.000000 0.000000 1.000000
vn 0.000000 0.000000 1.000000
vn 0.000000 0.000000 1.000000
vn 0.000000 0.000000 1.000000
vn -1.000000 0.000000 0.000017
vn -1.000000 0.000000 0.000017
vn -1.000000 0.000000 0.000017
vn -1.000000 0.000000 0.000017
vn -0.707091 0.000000 0.707123
vn -0.707090 0.000000 0.707123
vn -0.707091 0.000000 0.707123
vn -0.707090 0.000000 0.707123
vn 0.000017 0.000000 1.000000
vn 0.000016 0.000000 1.000000
vn 0.000017 0.000000 1.000000
vn 0.000016 0.000000 1.000000
vn 0.707121 0.000000 0.707093
vn 0.707123 0.000000 0.707091
vn 0.707121 0.000000 0.707093
vn 0.707123 0.000000 0.707090
vn 1.000000 0.000000 0.000002
vn 1.000000 0.000000 0.000002
vn 1.000000 0.000000 0.000002
vn 1.000000 0.000000 0.000002
vn 0.000000 0.000000 1.000000
vn 0.000000 0.000000 1.000000
vn 0.000000 0.000000 1.000000
vn 0.000000 0.000000 1.000000
vn 1.000000 0.000000 0.000000
vn 1.000000 0.000000 0.000000
vn 1.000000 0.000000 0.000000
vn 1.000000 0.000000 0.000000
vn 0.000000 1.000000 0.000000
vn 0.000000 1.000000 0.000000
vn 0.000000 1.000000 0.000000
vn 0.000000 1.000000 0.000000
vn 0.000000 1.000000 0.000000
vn 0.000000 1.000000 0.000000
vn 0.000000 1.000000 0.000000
vn 0.000000 1.000000 0.000000
vn 0.000000 1.000000 -0.000000
vn 0.000000 1.000000 -0.000000
vn 0.000000 1.000000 0.000000
vn 0.000000 1.000000 0.000000
vn 0.000000 -1.000000 0.000000
vn 0.000000 -1.000000 0.000000
vn 0.000000 -1.000000 -0.000000
vn 0.000000 -1.000000 0.000000
vn 0.000000 -1.000000 0.000000
vn 0.000000 -1.000000 0.000000
vn 0.000000 -1.000000 0.000000
vn 0.000000 -1.000000 -0.000000
vn 0.000000 -1.000000 0.000000
vn 0.000000 -1.000000 0.000000
vn 0.000000 -1.000000 0.000000
vn 0.000000 -1.000000 0.000000
s 1
g upstairsceilingBaked BedroomBakedTriExport
usemtl upstairsceilingBakedSG
f 22/1/1 1/2/2 21/4/3
f 21/4/3 1/2/2 11/3/4
s 2
f 1/5/5 2/6/6 11/8/7
f 11/8/7 2/6/6 12/7/8
s 3
f 2/9/9 3/10/10 12/12/11
f 12/12/11 3/10/10 13/11/12
s 4
f 3/13/13 4/14/14 13/16/15
f 13/16/15 4/14/14 14/15/16
s 5
f 4/17/17 5/18/18 14/20/19
f 14/20/19 5/18/18 15/19/20
s 6
f 5/18/21 6/21/22 15/19/23
f 15/19/23 6/21/22 16/22/24
s 7
f 6/23/25 7/24/26 16/26/27
f 16/26/27 7/24/26 17/25/28
s 8
f 7/27/29 8/28/30 17/30/31
f 17/30/31 8/28/30 18/29/32
s 9
f 8/28/33 9/31/34 18/29/35
f 18/29/35 9/31/34 19/32/36
s 10
f 9/33/37 10/34/38 19/36/39
f 19/36/39 10/34/38 20/35/40
s 11
f 10/37/41 23/38/42 20/40/43
f 20/40/43 23/38/42 24/39/44
s 12
f 24/41/45 21/42/46 20/52/47
f 21/42/46 11/43/48 20/52/47
f 20/52/47 11/43/48 19/51/49
f 12/44/50 13/45/51 11/43/48
f 13/45/51 14/46/52 11/43/48
f 11/43/48 14/46/52 19/51/49
f 14/46/52 15/47/53 19/51/49
f 19/51/49 15/47/53 18/50/54
f 15/47/53 16/48/55 18/50/54
f 16/48/55 17/49/56 18/50/54
s 14
f 22/53/57 23/54/58 1/64/59
f 23/54/58 10/55/60 1/64/59
f 10/55/60 9/56/61 1/64/59
f 3/62/62 2/63/63 4/61/64
f 2/63/63 1/64/59 4/61/64
f 1/64/59 9/56/61 4/61/64
f 9/56/61 8/57/65 4/61/64
f 4/61/64 8/57/65 5/60/66
f 8/57/65 7/58/67 5/60/66
f 7/58/67 6/59/68 5/60/66
