# This file uses feet as units for non-parametric coordinates.

mtllib upstrairsfloor.mtl
g default
v 0.079288 3.101024 2.880780
v 0.079288 3.566178 2.880780
v 0.079288 3.566178 0.079287
v 0.079288 3.101024 0.079287
v 3.382935 3.101024 0.079287
v 3.382935 3.101024 2.880780
v 3.382935 3.256075 2.880780
v 3.382935 3.256075 0.079287
v 0.079288 3.101024 9.805227
v 0.079288 3.566178 7.268026
v 3.382935 3.256075 9.805227
v 3.382935 3.101024 9.805227
v 0.079288 3.256075 9.805227
v 0.079288 3.256075 0.079287
v 0.079288 3.101024 7.268026
v -6.845157 3.101024 2.880780
v -6.475149 3.101024 2.880780
v -6.845157 3.566177 2.880780
v -6.554437 3.566177 2.880780
v -6.845157 3.566177 0.079287
v -6.554437 3.566177 0.079287
v -6.845157 3.101024 0.079287
v -6.475149 3.101024 0.079287
v -10.148805 3.101024 0.079287
v -10.148805 3.101024 2.880780
v -10.148805 3.256075 2.880780
v -10.148805 3.256075 0.079287
v -6.845157 3.101024 9.805226
v -6.845157 3.566177 7.268025
v -10.148805 3.256075 9.805226
v -10.148805 3.101024 9.805226
v -6.845157 3.256075 9.805226
v -6.845157 3.256075 2.880780
v -6.475149 3.256075 2.880780
v -6.475149 3.256075 0.079287
v -6.845157 3.256075 0.079287
v 0.079288 3.101024 1.080976
v 0.079288 3.101024 0.617829
v 0.079288 3.256075 0.617829
v 0.079288 3.256075 1.080976
v 0.079288 3.256075 1.544357
v 0.079288 3.101024 1.544357
v -1.446912 3.101024 1.397134
v -1.767468 3.101024 0.221100
v 0.079288 3.101024 0.079288
v 0.079288 3.256075 0.079288
v -1.767468 3.256075 0.221100
v -1.446912 3.256075 1.397134
v -1.468507 3.101024 1.728966
v -1.468507 3.256075 1.728966
v 0.079288 3.256075 1.916114
v 0.079288 3.101024 1.916114
v -1.767468 3.242348 0.221100
v -1.766850 3.101024 0.079288
v -1.766850 3.256075 0.079288
v -2.801879 3.256075 0.209995
v -2.714560 3.256075 1.478277
v -1.468507 3.167527 1.728966
v -1.446912 3.242348 1.397134
v -1.575243 3.101024 2.043902
v -1.575243 3.256075 2.043902
v 0.079288 3.256075 2.332196
v 0.079288 3.101024 2.332196
v -2.801879 3.242348 0.209994
v -2.801879 3.101024 0.209993
v -2.644653 3.101024 0.079288
v -2.644653 3.256075 0.079288
v -2.801879 3.256075 0.209993
v -2.714560 3.242348 1.478277
v -1.759861 3.101024 2.320480
v -1.759861 3.256075 2.320480
v 0.079288 3.256075 2.880780
v 0.079288 3.101024 2.880780
v -1.768055 3.101024 2.880780
v -1.768055 3.256075 2.880780
v -6.845158 3.256075 9.805227
v -4.730638 3.256075 9.805228
v -6.845158 3.256075 2.880780
v -6.845158 3.101024 2.880780
v -6.845158 3.101024 9.805227
v 0.079288 3.101024 9.805227
v -2.034646 3.256075 9.805228
v 0.079288 3.256075 9.805227
v -4.730800 3.256075 11.238835
v -4.050046 3.256075 11.919558
v -2.715772 3.256075 11.919536
v -2.035049 3.256075 11.238783
v 3.462223 3.256075 0.079287
v 3.462223 3.101024 0.079287
v 3.462223 3.256075 -7.690895
v -0.211433 3.256075 -7.690895
v 3.462223 3.101024 -7.690895
v -0.211433 3.101024 -7.690895
v -10.650959 3.256075 0.079287
v -10.650959 3.256075 -7.690890
v -0.211433 3.256075 -7.690891
v -10.650959 3.101024 -7.690890
v -10.650959 3.101024 0.079287
v -0.211433 3.101024 -7.690891
vt 0.829051 0.820104
vt 0.829747 0.820104
vt 0.829747 0.832670
vt 0.829051 0.832670
vt 0.908829 0.570107
vt 0.980104 0.570107
vt 0.980104 0.630549
vt 0.908829 0.630549
vt 0.859849 0.820013
vt 0.845030 0.831393
vt 0.845030 0.820013
vt 0.845030 0.851072
vt 0.859849 0.851072
vt 0.859849 0.863638
vt 0.845030 0.863638
vt 0.864417 0.914729
vt 0.865808 0.899910
vt 0.865808 0.914729
vt 0.829747 0.863730
vt 0.829051 0.863730
vt 0.908829 0.725202
vt 0.980104 0.779941
vt 0.908829 0.779941
vt 0.808173 0.916862
vt 0.808173 0.902044
vt 0.808868 0.902044
vt 0.808868 0.916862
vt 0.866504 0.899910
vt 0.866504 0.914729
vt 0.862243 0.851433
vt 0.862243 0.863999
vt 0.860157 0.863999
vt 0.860157 0.851433
vt 0.862243 0.831754
vt 0.860157 0.831754
vt 0.860852 0.820374
vt 0.860157 0.820374
vt 0.862074 0.824156
vt 0.863734 0.824156
vt 0.863378 0.825547
vt 0.862074 0.825547
vt 0.862405 0.895386
vt 0.863709 0.895386
vt 0.863709 0.907952
vt 0.862405 0.907952
vt 0.805616 0.903510
vt 0.805616 0.902206
vt 0.807007 0.901850
vt 0.807007 0.903510
vt 0.974980 0.783250
vt 0.982963 0.783250
vt 0.982963 0.843691
vt 0.974980 0.843691
vt 0.809720 0.914727
vt 0.809720 0.902161
vt 0.811111 0.902161
vt 0.811111 0.914727
vt 0.863991 0.863730
vt 0.863991 0.851164
vt 0.864687 0.851164
vt 0.864687 0.863730
vt 0.903705 0.843691
vt 0.903705 0.783250
vt 0.847587 0.864327
vt 0.862405 0.864327
vt 0.862405 0.875707
vt 0.847587 0.907952
vt 0.847587 0.895386
vt 0.807007 0.918328
vt 0.845939 0.908635
vt 0.845939 0.877575
vt 0.847330 0.877575
vt 0.847330 0.897254
vt 0.863991 0.820104
vt 0.864687 0.820104
vt 0.974980 0.993084
vt 0.903705 0.993084
vt 0.844391 0.893635
vt 0.845087 0.893635
vt 0.845087 0.908453
vt 0.844391 0.908453
vt 0.845243 0.877575
vt 0.845243 0.908635
vt 0.862074 0.823460
vt 0.863734 0.823460
vt 0.809025 0.914727
vt 0.809025 0.902161
vt 0.807702 0.901850
vt 0.807702 0.903510
vt 0.807702 0.918328
vt 0.270875 0.442138
vt 0.185489 0.442138
vt 0.185489 0.413553
vt 0.270876 0.413553
vt 0.356304 0.413553
vt 0.356304 0.442138
vt 0.983900 0.212616
vt 0.696082 0.272238
vt 0.635630 0.050456
vt 0.983900 0.125273
vt 0.086204 0.442138
vt 0.086204 0.413553
vt 0.084973 0.629291
vt 0.084973 0.543905
vt 0.425441 0.470763
vt 0.366344 0.687578
vt 0.983900 0.300002
vt 0.692010 0.334816
vt 0.370325 0.748754
vt 0.084973 0.714719
vt 0.424842 0.413553
vt 0.424842 0.442138
vt 0.576101 0.383648
vt 0.576101 0.409702
vt 0.359287 0.409702
vt 0.359287 0.383648
vt 0.635747 0.023713
vt 0.983900 0.023713
vt 0.084973 0.444619
vt 0.425328 0.444619
vt 0.616146 0.468716
vt 0.600048 0.702537
vt 0.298110 0.397442
vt 0.298110 0.409702
vt 0.983900 0.370110
vt 0.671881 0.394209
vt 0.298110 0.381117
vt 0.359287 0.381117
vt 0.390003 0.806816
vt 0.084973 0.783257
vt 0.501551 0.413553
vt 0.501551 0.442138
vt 0.085652 0.366454
vt 0.085652 0.340400
vt 0.276357 0.340400
vt 0.276357 0.366454
vt 0.440557 0.048362
vt 0.470207 0.023713
vt 0.587160 0.444619
vt 0.616146 0.468716
vt 0.086554 0.369329
vt 0.320258 0.369329
vt 0.320258 0.371860
vt 0.086554 0.371860
vt 0.083140 0.336721
vt 0.083140 0.334190
vt 0.273845 0.334190
vt 0.273845 0.336721
vt 0.086495 0.374735
vt 0.320316 0.374735
vt 0.320316 0.377266
vt 0.086495 0.377266
vt 0.240048 0.409702
vt 0.983900 0.448576
vt 0.637065 0.446367
vt 0.240049 0.381117
vt 0.424039 0.857806
vt 0.084973 0.859966
vt 0.602688 0.413553
vt 0.602688 0.442138
vt 0.628503 0.058985
vt 0.688955 0.280767
vt 0.449896 0.296070
vt 0.433429 0.056891
vt 0.112771 0.307218
vt 0.112771 0.331315
vt 0.084186 0.331315
vt 0.084186 0.307218
vt 0.189059 0.409702
vt 0.189059 0.381117
vt 0.983900 0.552031
vt 0.635520 0.552031
vt 0.425550 0.961103
vt 0.084973 0.961103
vt 0.085761 0.381117
vt 0.085761 0.409702
vt 0.828154 0.901565
vt 0.819867 0.901565
vt 0.797094 0.901565
vt 0.797094 0.870505
vt 0.806579 0.870505
vt 0.818672 0.870505
vt 0.828154 0.870505
vt 0.863139 0.864051
vt 0.863139 0.832992
vt 0.863835 0.832992
vt 0.863835 0.864051
vt 0.866178 0.865270
vt 0.866178 0.877363
vt 0.866178 0.886847
vt 0.865483 0.886847
vt 0.865483 0.855788
vt 0.866178 0.855788
vt 0.041590 0.000499
vt 0.041590 0.861852
vt 0.022302 0.861852
vt 0.022302 0.230296
vt 0.041590 0.230296
vt 0.511792 0.985300
vt 0.511792 0.835908
vt 0.661184 0.835908
vt 0.661184 0.985300
vt 0.757680 0.903818
vt 0.758984 0.868965
vt 0.774158 0.868965
vt 0.774158 0.903818
vt 0.865539 0.855083
vt 0.864843 0.855083
vt 0.864843 0.820229
vt 0.865539 0.820229
vt 0.865539 0.887592
vt 0.865539 0.902766
vt 0.864843 0.902766
vt 0.864843 0.887592
vt 0.701970 0.812141
vt 0.628985 0.812141
vt 0.622712 0.644502
vt 0.701970 0.644502
vt 0.864687 0.887632
vt 0.864687 0.904110
vt 0.863991 0.904110
vt 0.863991 0.887632
vt 0.814422 0.914419
vt 0.811368 0.911366
vt 0.811368 0.905381
vt 0.814422 0.902328
vt 0.820852 0.902326
vt 0.820852 0.914419
vt 0.792533 0.868273
vt 0.757680 0.868273
vt 0.757680 0.832361
vt 0.757680 0.828423
vt 0.792533 0.821447
vt 0.865696 0.855083
vt 0.865696 0.820229
vt 0.866391 0.820229
vt 0.866391 0.855083
vt 0.019705 0.999501
vt 0.000418 0.999501
vt 0.000418 0.003572
vt 0.019705 0.003572
vt 0.828895 0.867088
vt 0.828199 0.867088
vt 0.828199 0.820261
vt 0.828895 0.820261
vt 0.899189 0.609164
vt 0.731550 0.575607
vt 0.899189 0.569334
vt 0.757680 0.820143
vt 0.899189 0.800835
vt 0.731550 0.800835
vt 0.899189 0.628102
vt 0.865326 0.855788
vt 0.865326 0.886847
vt 0.864630 0.886847
vt 0.864630 0.855788
vn 1.000000 0.000000 0.000000
vn 1.000000 0.000000 0.000000
vn 1.000000 0.000000 0.000000
vn 1.000000 0.000000 0.000000
vn 0.000000 -1.000000 0.000000
vn 0.000000 -1.000000 0.000000
vn 0.000000 -1.000000 0.000000
vn 0.000000 -1.000000 0.000000
vn -0.000000 0.992613 0.121320
vn -0.000000 0.992613 0.121320
vn -0.000000 0.992613 0.121320
vn 0.093456 0.995623 0.000000
vn 0.093456 0.995623 0.000000
vn 0.093456 0.995623 0.000000
vn 0.093456 0.995623 0.000000
vn -0.000000 -0.000000 -1.000000
vn -0.000000 -0.000000 -1.000000
vn -0.000000 -0.000000 -1.000000
vn 0.093456 0.995623 0.000000
vn 0.093456 0.995623 0.000000
vn 0.093456 0.995623 0.000000
vn 0.093456 0.995623 0.000000
vn 1.000000 0.000000 0.000000
vn 1.000000 0.000000 0.000000
vn 1.000000 0.000000 0.000000
vn 1.000000 0.000000 0.000000
vn 0.000000 -1.000000 0.000000
vn 0.000000 -1.000000 0.000000
vn 0.000000 -1.000000 0.000000
vn 0.000000 0.000000 1.000000
vn 0.000000 0.000000 1.000000
vn 0.000000 0.000000 1.000000
vn 0.000000 0.000000 1.000000
vn -0.000000 0.000000 -1.000000
vn 0.000000 0.000001 -1.000000
vn 0.000000 -1.000000 0.000000
vn 0.000000 -1.000000 0.000000
vn -1.000000 0.000000 0.000000
vn -1.000000 0.000000 0.000000
vn -1.000000 0.000000 0.000000
vn -1.000000 0.000000 0.000000
vn -1.000000 0.000000 0.000000
vn -1.000000 0.000000 0.000000
vn -1.000000 0.000000 0.000000
vn -1.000000 0.000000 0.000000
vn -1.000000 0.000000 0.000000
vn -1.000000 0.000000 0.000000
vn -1.000000 0.000000 0.000000
vn -1.000000 0.000000 0.000000
vn 0.000000 0.000000 1.000000
vn 0.000000 0.000000 1.000000
vn 0.000000 0.000000 1.000000
vn 0.000000 0.000000 1.000000
vn 0.000000 1.000000 0.000000
vn 0.000000 1.000000 0.000000
vn 0.000000 1.000000 0.000000
vn 0.000000 1.000000 0.000000
vn 0.000000 -0.000000 -1.000000
vn 0.000000 -0.000000 -1.000000
vn 0.000000 0.000000 -1.000000
vn 0.000000 0.000000 -1.000000
vn 0.000000 -1.000000 0.000000
vn 0.000000 -1.000000 0.000000
vn 0.000000 -1.000000 0.000000
vn 0.000000 -1.000000 0.000000
vn 0.985781 0.168035 0.000000
vn 0.985782 0.168031 0.000000
vn 0.968832 0.247718 0.000000
vn 0.968834 0.247710 0.000000
vn -1.000000 0.000000 0.000000
vn -1.000000 0.000000 0.000000
vn -1.000000 0.000000 0.000000
vn -1.000000 0.000000 0.000000
vn 0.000000 -1.000000 0.000000
vn 0.000000 -1.000000 0.000000
vn 0.000000 -1.000000 0.000000
vn 0.000000 -1.000000 0.000000
vn 0.000000 0.965915 0.258861
vn 0.000000 0.983607 0.180328
vn 0.000000 0.992613 0.121320
vn -0.093456 0.995623 0.000000
vn -0.093456 0.995623 0.000000
vn -0.093456 0.995623 0.000000
vn -0.093456 0.995623 0.000000
vn 0.000000 -0.000000 -1.000000
vn 0.000000 -0.000000 -1.000000
vn 0.000000 -0.000000 -1.000000
vn 1.000000 0.000000 0.000000
vn 1.000000 0.000000 0.000000
vn 1.000000 0.000000 0.000000
vn 1.000000 0.000000 0.000000
vn -0.093456 0.995623 0.000000
vn -0.093456 0.995623 0.000000
vn -0.093456 0.995623 0.000000
vn -0.093456 0.995623 0.000000
vn -1.000000 0.000000 0.000000
vn -1.000000 0.000000 0.000000
vn -1.000000 0.000000 0.000000
vn -1.000000 0.000000 0.000000
vn 0.000000 -1.000000 0.000000
vn 0.000000 -1.000000 0.000000
vn 0.000000 -1.000000 0.000000
vn 0.000000 -1.000000 0.000000
vn 0.000000 0.000000 1.000000
vn -0.000001 0.000000 1.000000
vn 1.000000 0.000000 0.000000
vn 1.000000 0.000000 0.000000
vn 0.000000 0.000000 1.000000
vn 0.000000 0.000000 1.000000
vn 1.000000 0.000000 0.000000
vn 1.000000 0.000006 0.000000
vn 0.000000 0.000001 -1.000000
vn 0.000000 0.000001 -1.000000
vn 0.000000 0.000000 -1.000000
vn 0.000000 0.000001 -1.000000
vn 1.000000 0.000000 0.000000
vn 1.000000 0.000000 -0.000000
vn 1.000000 0.000000 0.000000
vn 1.000000 0.000000 -0.000000
vn 1.000000 0.000000 0.000000
vn 1.000000 0.000000 0.000000
vn 0.000000 -1.000000 0.000000
vn 0.000000 -1.000000 -0.000000
vn -0.000000 -1.000000 0.000000
vn -0.000000 -1.000000 -0.000000
vn 1.000000 0.000000 -0.000000
vn 1.000000 0.000000 0.000000
vn 0.000000 1.000000 0.000000
vn -0.000000 1.000000 -0.000000
vn 0.000000 1.000000 0.000000
vn -0.000000 1.000000 0.000000
vn 0.000000 -1.000000 0.000000
vn 0.000000 -1.000000 0.000000
vn 0.000000 1.000000 0.000000
vn 0.000000 1.000000 -0.000001
vn 1.000000 0.000000 0.000000
vn 1.000000 0.000000 0.000000
vn -0.964801 0.000000 0.262981
vn -0.964801 0.000000 0.262981
vn -0.981527 0.000000 0.191323
vn -0.980168 0.000000 0.198170
vn -0.000000 -1.000000 0.000001
vn -0.000000 -1.000000 -0.000001
vn -0.000000 1.000000 -0.000001
vn -0.000000 1.000000 -0.000000
vn 0.000000 1.000000 0.000000
vn 0.000000 1.000000 0.000000
vn 0.000000 1.000000 0.000000
vn 0.000000 1.000000 0.000000
vn -0.980486 0.000000 -0.196588
vn -0.980878 0.000000 -0.194625
vn 0.000000 -1.000000 0.000000
vn 0.000000 -1.000000 -0.000000
vn -0.997889 0.000000 -0.064941
vn -0.980589 0.000000 -0.196074
vn 0.000000 1.000000 -0.000000
vn 0.000000 1.000000 0.000001
vn 1.000000 0.000000 -0.000000
vn 1.000000 -0.000000 -0.000000
vn -0.010737 0.000000 0.999942
vn -0.010737 -0.000001 0.999942
vn -0.010736 -0.000009 0.999942
vn -0.010735 -0.000010 0.999942
vn 0.000000 -1.000000 0.000000
vn 0.000000 -1.000000 -0.000000
vn 0.000000 1.000000 -0.000005
vn 0.000000 1.000000 -0.000005
vn 0.063879 0.000011 0.997958
vn 0.063879 0.000000 0.997958
vn 0.063879 0.000011 0.997958
vn 0.063879 0.000000 0.997958
vn 0.010734 0.000000 -0.999942
vn 0.010734 0.000001 -0.999942
vn 0.010736 0.000082 -0.999942
vn 0.010736 0.000082 -0.999942
vn -0.997638 0.000000 0.068686
vn -0.997638 0.000000 0.068685
vn -0.997638 0.000000 0.068686
vn -0.997638 0.000000 0.068685
vn -0.894907 0.000000 -0.446253
vn 0.000000 -1.000000 -0.000001
vn -0.000000 -1.000000 0.000000
vn -0.894929 0.000000 -0.446209
vn 0.000000 1.000000 0.000000
vn 0.000000 1.000000 -0.000000
vn 1.000000 -0.000000 -0.000000
vn 1.000000 -0.000000 -0.000000
vn 0.000000 -1.000000 -0.000000
vn 0.000000 -1.000000 -0.000000
vn 0.000000 -1.000000 -0.000000
vn 0.000000 -1.000000 0.000000
vn -0.639270 0.000000 -0.768982
vn -0.639270 0.000000 -0.768982
vn -0.639270 0.000000 -0.768982
vn -0.639270 0.000000 -0.768982
vn -0.831727 0.000000 -0.555184
vn -0.831727 0.000000 -0.555185
vn -0.000000 -1.000000 -0.000001
vn -0.000000 -1.000000 0.000001
vn 0.000000 1.000000 0.000000
vn -0.000000 1.000000 0.000000
vn -0.999893 0.000000 -0.014624
vn -0.999893 0.000000 -0.014624
vn -0.999893 0.000000 -0.014624
vn -0.999893 0.000000 -0.014624
vn -0.000000 1.000000 0.000000
vn -0.000000 1.000000 0.000000
vn 0.000000 1.000000 0.000000
vn 0.000000 1.000000 0.000000
vn 0.000000 1.000000 0.000000
vn -1.000000 0.000000 0.000000
vn -1.000000 0.000000 0.000000
vn -1.000000 0.000000 0.000000
vn -1.000000 0.000000 0.000000
vn 0.000000 0.000000 1.000000
vn 0.000000 -0.000001 1.000000
vn 0.000000 -0.000007 1.000000
vn -0.000000 -0.000001 1.000000
vn -0.000000 -0.000007 1.000000
vn -0.000000 0.000000 1.000000
vn -0.000000 -1.000000 0.000000
vn -0.000000 -0.000000 -1.000000
vn -0.000000 -0.000001 -1.000000
vn -0.000000 0.000000 -1.000000
vn -0.000000 0.000000 -1.000000
vn 0.000000 -1.000000 0.000000
vn 0.000000 -1.000000 -0.000000
vn 0.000000 -1.000000 -0.000000
vn 0.000000 -1.000000 -0.000000
vn 0.000000 1.000000 0.000000
vn 0.000000 1.000000 0.000000
vn 0.000000 1.000000 0.000000
vn 0.000000 1.000000 -0.000000
vn 1.000000 0.000000 0.000000
vn 1.000000 0.000000 0.000000
vn 1.000000 0.000000 0.000000
vn 1.000000 0.000000 0.000000
vn 0.000000 0.000000 1.000000
vn 0.000000 0.000000 1.000000
vn 0.000000 0.000000 1.000000
vn 0.000000 0.000000 1.000000
vn -0.000000 -1.000000 0.000000
vn -0.000000 -1.000000 0.000000
vn -0.000000 -1.000000 0.000000
vn 0.000000 -1.000000 0.000000
vn 0.000000 0.000000 -1.000000
vn 0.000000 0.000000 -1.000000
vn 0.000000 0.000000 -1.000000
vn 0.000000 0.000000 -1.000000
vn 0.000000 1.000000 -0.000000
vn 0.000000 1.000000 -0.000000
vn 0.000000 1.000000 -0.000000
vn 0.000000 1.000000 0.000000
vn 0.000000 1.000000 0.000001
vn 0.000000 1.000000 -0.000001
vn -0.000000 1.000000 -0.000000
vn 0.000000 1.000000 -0.000000
vn -0.000000 1.000000 -0.000000
vn 0.000000 1.000000 0.000000
vn 0.000000 1.000000 0.000000
vn -1.000000 0.000000 0.000000
vn -1.000000 0.000000 0.000000
vn -1.000000 0.000000 0.000000
vn -1.000000 0.000000 0.000000
vn -0.000000 0.000000 1.000000
vn -0.000000 0.000000 1.000000
vn -0.000000 0.000000 1.000000
vn -0.000000 0.000000 1.000000
vn -0.000000 0.000000 -1.000000
vn -0.000000 0.000000 -1.000000
vn -0.000000 0.000000 -1.000000
vn -0.000000 0.000000 -1.000000
vn -0.000000 -1.000000 0.000000
vn -0.000000 -1.000000 0.000000
vn -0.000000 -1.000000 0.000000
vn -0.000000 1.000000 0.000000
vn 0.000000 -1.000000 0.000000
vn 0.000000 -1.000000 -0.000000
vn 0.000000 -1.000000 0.000000
vn 1.000000 -0.000000 0.000000
vn 1.000000 -0.000000 -0.000000
vn 1.000000 -0.000000 -0.000000
vn 1.000000 0.000000 -0.000000
s 1
g upstairsfloor1 ExportGeo
usemtl lambert36SG
f 5/1/1 8/2/2 6/4/3
f 6/4/3 8/2/2 7/3/4
s 2
f 4/5/5 5/6/6 1/8/7
f 1/8/7 5/6/6 6/7/8
s off
f 11/9/9 10/10/10 13/11/11
s 3
f 2/12/12 7/13/13 3/15/14
f 3/15/14 7/13/13 8/14/15
s 4
f 3/16/16 8/17/17 14/18/18
s 5
f 2/12/19 10/10/20 7/13/21
f 7/13/21 10/10/20 11/9/22
s 6
f 7/3/23 11/19/24 6/4/25
f 6/4/25 11/19/24 12/20/26
s 7
f 15/21/27 12/22/28 9/23/29
s 8
f 9/24/30 12/25/31 13/27/32
f 13/27/32 12/25/31 11/26/33
s 4
f 8/17/17 5/28/34 14/18/18
f 14/18/18 5/28/34 4/29/35
s 7
f 12/22/28 15/21/27 6/7/36
f 6/7/36 15/21/27 1/8/37
s 9
f 2/30/38 3/31/39 1/33/40
f 1/33/40 3/31/39 4/32/41
s 10
f 10/34/42 2/30/43 15/35/44
f 15/35/44 2/30/43 1/33/45
s 11
f 10/34/46 15/35/47 13/36/48
f 13/36/48 15/35/47 9/37/49
s 12
f 34/39/50 19/40/51 33/38/52
f 33/38/52 19/40/51 18/41/53
s 13
f 18/42/54 19/43/55 20/45/56
f 20/45/56 19/43/55 21/44/57
s 14
f 20/46/58 21/47/59 36/49/60
f 36/49/60 21/47/59 35/48/61
s 15
f 22/50/62 23/51/63 16/53/64
f 16/53/64 23/51/63 17/52/65
s 16
f 34/54/66 35/55/67 19/57/68
f 19/57/68 35/55/67 21/56/69
s 17
f 24/58/70 25/59/71 27/61/72
f 27/61/72 25/59/71 26/60/73
s 18
f 22/50/74 16/53/75 24/63/76
f 24/63/76 16/53/75 25/62/77
s 19
f 30/64/78 32/65/79 29/66/80
s 20
f 18/42/81 20/45/82 26/68/83
f 26/68/83 20/45/82 27/67/84
s 21
f 20/46/85 36/49/86 27/69/87
s 22
f 32/70/88 33/71/89 29/73/90
f 29/73/90 33/71/89 18/72/91
s 23
f 18/42/92 26/68/93 29/66/94
f 29/66/94 26/68/93 30/64/95
s 24
f 26/60/96 25/59/97 30/75/98
f 30/75/98 25/59/97 31/74/99
s 25
f 25/62/100 16/53/101 31/77/102
f 31/77/102 16/53/101 28/76/103
s 19
f 28/78/104 32/79/79 31/81/105
f 31/81/105 32/79/79 30/80/78
s 22
f 16/82/106 33/71/89 28/83/107
f 28/83/107 33/71/89 32/70/88
s 12
f 16/84/108 17/85/109 33/38/52
f 33/38/52 17/85/109 34/39/50
s 16
f 17/86/110 23/87/111 34/54/66
f 34/54/66 23/87/111 35/55/67
s 14
f 36/49/60 35/48/61 22/89/112
f 22/89/112 35/48/61 23/88/113
s 21
f 27/69/87 36/49/86 24/90/114
f 24/90/114 36/49/86 22/89/115
s 26
f 37/91/116 38/92/117 40/94/118
f 40/94/118 38/92/117 39/93/119
f 37/91/116 40/94/118 42/96/120
f 42/96/120 40/94/118 41/95/121
s 27
f 37/97/122 43/98/123 38/100/124
f 38/100/124 43/98/123 44/99/125
s 26
f 39/93/119 38/92/117 46/102/126
f 46/102/126 38/92/117 45/101/127
s 28
f 40/103/128 39/104/129 48/106/130
f 48/106/130 39/104/129 47/105/131
s 27
f 37/97/122 42/107/132 43/98/123
f 43/98/123 42/107/132 49/108/133
s 28
f 40/103/128 48/106/130 41/110/134
f 41/110/134 48/106/130 50/109/135
s 26
f 42/96/120 41/95/121 52/112/136
f 52/112/136 41/95/121 51/111/137
s 29
f 53/113/138 44/114/139 59/116/140
f 59/116/140 44/114/139 43/115/141
s 27
f 38/100/124 44/99/125 45/118/142
f 45/118/142 44/99/125 54/117/143
s 28
f 39/104/129 46/119/144 47/105/131
f 47/105/131 46/119/144 55/120/145
s 30
f 48/106/146 47/105/147 57/122/148
f 57/122/148 47/105/147 56/121/149
s 29
f 59/116/140 43/115/141 58/123/150
f 58/123/150 43/115/141 49/124/151
s 27
f 42/107/132 52/125/152 49/108/133
f 49/108/133 52/125/152 60/126/153
s 29
f 48/128/154 59/116/140 50/127/155
f 50/127/155 59/116/140 58/123/150
s 28
f 41/110/134 50/109/135 51/130/156
f 51/130/156 50/109/135 61/129/157
s 26
f 52/112/136 51/111/137 63/132/158
f 63/132/158 51/111/137 62/131/159
s 31
f 44/133/160 53/134/161 65/136/162
f 65/136/162 53/134/161 64/135/163
s 27
f 65/137/164 66/138/165 44/99/125
f 44/99/125 66/138/165 54/117/143
s 28
f 55/120/145 67/139/166 47/105/131
f 47/105/131 67/139/166 68/140/167
s 32
f 48/141/168 57/142/169 59/144/170
f 59/144/170 57/142/169 69/143/171
s 33
f 47/145/172 53/146/173 56/148/174
f 56/148/174 53/146/173 64/147/175
s 34
f 57/149/176 56/150/177 69/152/178
f 69/152/178 56/150/177 64/151/179
s 29
f 60/153/180 58/123/150 49/124/151
s 27
f 52/125/152 63/154/181 60/126/153
f 60/126/153 63/154/181 70/155/182
s 29
f 50/127/155 58/123/150 61/156/183
f 61/156/183 58/123/150 60/153/180
s 28
f 51/130/156 61/129/157 62/158/184
f 62/158/184 61/129/157 71/157/185
s 26
f 63/132/158 62/131/159 73/160/186
f 73/160/186 62/131/159 72/159/187
s 35
f 59/162/188 69/163/189 53/161/190
f 53/161/190 69/163/189 64/164/191
s 36
f 68/165/192 67/166/193 65/168/194
f 65/168/194 67/166/193 66/167/195
s 29
f 61/156/183 60/153/180 71/170/196
f 71/170/196 60/153/180 70/169/197
s 27
f 63/154/181 73/171/198 70/155/182
f 70/155/182 73/171/198 74/172/199
s 28
f 62/158/184 71/157/185 72/174/200
f 72/174/200 71/157/185 75/173/201
s 37
f 75/175/202 71/170/203 74/176/204
f 74/176/204 71/170/203 70/169/205
s 28
f 72/177/200 75/178/201 83/183/206
f 83/183/206 75/178/201 82/182/207
f 75/178/201 78/179/208 82/182/207
f 82/182/207 78/179/208 77/181/209
f 78/179/208 76/180/210 77/181/209
s 38
f 79/184/211 80/185/212 78/187/213
f 78/187/213 80/185/212 76/186/214
s 39
f 76/190/215 80/191/216 77/189/217
f 80/191/216 81/192/218 77/189/217
f 77/189/217 81/192/218 82/188/219
f 82/188/219 81/192/218 83/193/220
s 40
f 73/194/221 79/195/222 74/198/223
f 79/195/222 78/196/224 74/198/223
f 78/196/224 75/197/225 74/198/223
s 41
f 80/199/226 79/200/227 81/202/228
f 81/202/228 79/200/227 73/201/229
s 42
f 91/203/230 46/204/231 90/206/232
f 90/206/232 46/204/231 88/205/233
s 43
f 88/207/234 89/208/235 90/210/236
f 90/210/236 89/208/235 92/209/237
s 44
f 88/211/238 46/212/239 89/214/240
f 89/214/240 46/212/239 45/213/241
s 45
f 89/215/242 45/216/243 92/218/244
f 92/218/244 45/216/243 93/217/245
s 46
f 92/219/246 93/220/247 90/222/248
f 90/222/248 93/220/247 91/221/249
s 47
f 82/227/250 77/228/251 87/226/252
f 77/228/251 84/223/253 87/226/252
f 84/223/253 85/224/254 87/226/252
f 85/224/254 86/225/255 87/226/252
s 48
f 96/233/256 95/229/257 55/232/258
f 55/232/258 95/229/257 67/231/259
f 95/229/257 94/230/260 67/231/259
s 49
f 97/234/261 98/235/262 95/237/263
f 95/237/263 98/235/262 94/236/264
s 50
f 94/238/265 98/239/266 67/241/267
f 67/241/267 98/239/266 66/240/268
s 51
f 97/242/269 95/243/270 99/245/271
f 99/245/271 95/243/270 96/244/272
s 52
f 54/246/273 99/247/274 45/248/275
s 48
f 96/233/256 55/232/258 46/249/276
s 52
f 99/247/274 54/246/273 97/251/277
f 54/246/273 66/252/278 97/251/277
f 98/250/279 97/251/277 66/252/278
s 53
f 72/253/280 83/254/281 73/256/282
f 73/256/282 83/254/281 81/255/283
