{
    "accessors": {
        "accessor_buffer_Untitled.001_0": {
            "bufferView": "bufferView_buffer_Untitled.001_0",
            "byteOffset": 0,
            "byteStride": 44,
            "componentType": 5126,
            "count": 73359,
            "max": [
                36.0,
                17.0,
                1.0
            ],
            "min": [
                -35.0,
                0.0,
                -55.0
            ],
            "type": "VEC3"
        },
        "accessor_buffer_Untitled.001_1": {
            "bufferView": "bufferView_buffer_Untitled.001_0",
            "byteOffset": 12,
            "byteStride": 44,
            "componentType": 5126,
            "count": 73359,
            "max": [
                1.0,
                1.0,
                1.0
            ],
            "min": [
                -1.0,
                -1.0,
                -1.0
            ],
            "type": "VEC3"
        },
        "accessor_buffer_Untitled.001_2": {
            "bufferView": "bufferView_buffer_Untitled.001_0",
            "byteOffset": 24,
            "byteStride": 44,
            "componentType": 5126,
            "count": 73359,
            "max": [
                0.9824219942092896,
                0.5605469942092896
            ],
            "min": [
                0.0019531298894435167,
                0.0019530057907104492
            ],
            "type": "VEC2"
        },
        "accessor_buffer_Untitled.001_3": {
            "bufferView": "bufferView_buffer_Untitled.001_0",
            "byteOffset": 32,
            "byteStride": 44,
            "componentType": 5126,
            "count": 73359,
            "max": [
                1.0,
                1.0,
                1.0
            ],
            "min": [
                0.0,
                0.0,
                0.0
            ],
            "type": "VEC3"
        },
        "accessor_buffer_Untitled.001_4": {
            "bufferView": "bufferView_buffer_Untitled.001_1",
            "byteOffset": 0,
            "byteStride": 4,
            "componentType": 5125,
            "count": 110682,
            "max": [
                73358
            ],
            "min": [
                0
            ],
            "type": "SCALAR"
        }
    },
    "asset": {
        "profile": {
            "api": "WebGL",
            "version": "1.0.3"
        },
        "version": "1.0"
    },
    "bufferViews": {
        "bufferView_buffer_Untitled.001_0": {
            "buffer": "buffer_combined",
            "byteLength": 3227796,
            "byteOffset": 0,
            "target": 34962
        },
        "bufferView_buffer_Untitled.001_1": {
            "buffer": "buffer_combined",
            "byteLength": 442728,
            "byteOffset": 3227796,
            "target": 34963
        }
    },
    "buffers": {
        "buffer_combined": {
            "byteLength": 3670524,
            "type": "arraybuffer",
            "uri": "world5_1.bin"
        }
    },
    "extensions": {
        "KHR_materials_common": {
            "lights": {}
        }
    },
    "extensionsUsed": [
        "KHR_materials_common"
    ],
    "glExtensionsUsed": [
        "OES_element_index_uint"
    ],
    "images": {
        "image_world-RGBA.png": {
            "uri": "world-RGBA.png"
        }
    },
    "materials": {
        "material_lambert3": {
            "extensions": {
                "KHR_materials_common": {
                    "technique": "PHONG",
                    "values": {
                        "ambient": [
                            1.0,
                            1.0,
                            1.0,
                            1.0
                        ],
                        "diffuse": "texture_Texture",
                        "doubleSided": false,
                        "emission": [
                            0.0,
                            0.0,
                            0.0,
                            1.0
                        ],
                        "shininess": 49,
                        "specular": [
                            0.5,
                            0.5,
                            0.5,
                            1.0
                        ],
                        "transparency": 1.0,
                        "transparent": false
                    }
                }
            },
            "name": "lambert3"
        }
    },
    "meshes": {
        "mesh_Untitled.001": {
            "name": "Untitled.001",
            "primitives": [
                {
                    "attributes": {
                        "COLOR_0": "accessor_buffer_Untitled.001_3",
                        "NORMAL": "accessor_buffer_Untitled.001_1",
                        "POSITION": "accessor_buffer_Untitled.001_0",
                        "TEXCOORD_0": "accessor_buffer_Untitled.001_2"
                    },
                    "indices": "accessor_buffer_Untitled.001_4",
                    "material": "material_lambert3",
                    "mode": 4
                }
            ]
        }
    },
    "nodes": {
        "node_WorldGood.001": {
            "children": [],
            "matrix": [
                1.0,
                0.0,
                0.0,
                0.0,
                0.0,
                -1.6292068494294654e-07,
                1.0,
                0.0,
                0.0,
                -1.0,
                -1.6292068494294654e-07,
                0.0,
                0.0,
                0.0,
                0.0,
                1.0
            ],
            "meshes": [
                "mesh_Untitled.001"
            ],
            "name": "WorldGood.001"
        },
        "node_scene_Scene_root": {
            "children": [
                "node_WorldGood.001"
            ],
            "matrix": [
                0.0,
                0.0,
                1.0,
                0.0,
                1.0,
                0.0,
                0.0,
                0.0,
                0.0,
                1.0,
                0.0,
                0.0,
                0.0,
                0.0,
                0.0,
                1.0
            ],
            "name": "node_scene_Scene_root"
        }
    },
    "samplers": {
        "sampler_default": {}
    },
    "scene": "scene_Scene",
    "scenes": {
        "scene_Scene": {
            "extras": {
                "active_camera": "camera_Camera",
                "background_color": [
                    0.05087608844041824,
                    0.05087608844041824,
                    0.05087608844041824
                ],
                "frames_per_second": 24
            },
            "name": "Scene",
            "nodes": [
                "node_scene_Scene_root"
            ]
        }
    },
    "textures": {
        "texture_Texture": {
            "format": 6408,
            "internalFormat": 6408,
            "sampler": "sampler_default",
            "source": "image_world-RGBA.png"
        }
    }
}
